<?xml version="1.0" standalone="no"?>
<!DOCTYPE svg PUBLIC "-//W3C//DTD SVG 1.1//EN">
<svg xmlns="http://www.w3.org/2000/svg" xmlns:xlink="http://www.w3.org/1999/xlink" version="1.1">
<metadata>
Created by FontForge 20170924 at Fri Jan  1 00:00:00 1904
 By www-data
Copyright (C) 1990-1992 ParaGraph JV.
</metadata>
<defs>
<font id="PetersburgCyrillic" horiz-adv-x="2154" >
  <font-face 
    font-family="Petersburg"
    font-weight="400"
    font-stretch="normal"
    units-per-em="4096"
    panose-1="2 11 114 0 0 0 0 0 0 0"
    ascent="3276"
    descent="-820"
    x-height="1892"
    cap-height="2867"
    bbox="-328 -918 4588 3719"
    underline-thickness="56"
    underline-position="-252"
    unicode-range="U+0020-2122"
  />
<missing-glyph horiz-adv-x="3072" 
d="M512 0v2560h2048v-2560h-2048zM2494 66v2428h-1916v-2428h1916z" />
    <glyph glyph-name=".notdef" horiz-adv-x="3072" 
d="M512 0v2560h2048v-2560h-2048zM2494 66v2428h-1916v-2428h1916z" />
    <glyph glyph-name=".null" horiz-adv-x="0" 
 />
    <glyph glyph-name="nonmarkingreturn" horiz-adv-x="0" 
 />
    <glyph glyph-name="space" unicode=" " horiz-adv-x="1438" 
 />
    <glyph glyph-name="exclam" unicode="!" horiz-adv-x="1270" 
d="M692 573h-114l-21 557q-6 161 -23.5 378.5t-44.5 470.5t-47 405q-32 246 -32 340q0 113 69.5 157t155.5 44t155.5 -44t69.5 -157q0 -94 -33 -340q-95 -716 -114 -1254zM418 160q0 87 62 152t155 65q97 0 157 -66t60 -151q0 -94 -64.5 -155.5t-152.5 -61.5
q-93 0 -155 66.5t-62 150.5z" />
    <glyph glyph-name="quotedbl" unicode="&#x22;" horiz-adv-x="1638" 
d="M287 2867h409l-147 -819h-115zM942 2867h410l-148 -819h-114z" />
    <glyph glyph-name="numbersign" unicode="#" horiz-adv-x="2626" 
d="M1577 70h-164l123 684h-676l-123 -684h-164l123 684h-467l41 229h467l152 848h-467l41 229h467l123 684h164l-123 -684h671l123 684h164l-119 -684h463l-41 -229h-463l-151 -848h463l-41 -229h-463zM901 983h676l147 848h-671z" />
    <glyph glyph-name="dollar" unicode="$" horiz-adv-x="2458" 
d="M1323 -295h-156v238q-265 0 -475.5 86.5t-328 228.5t-117.5 299q0 132 69 201t164 69q93 0 159.5 -68t66.5 -190q0 -49 -29 -123q-29 -68 -29 -81q0 -104 140 -204.5t380 -103.5v1286l-274 164q-191 112 -303.5 193.5t-185 196t-72.5 270.5q0 191 87 365t276 283.5
t472 109.5v188h156v-193q206 -1 390.5 -72t294.5 -200t110 -289q0 -147 -68 -202.5t-129 -55.5q-96 0 -162.5 56.5t-66.5 169.5q0 60 24 122q37 81 37 111q0 94 -129.5 170t-300.5 76v-1049l418 -250q137 -82 232 -160.5t167 -216t72 -331.5q0 -252 -118 -443.5t-322 -297
t-449 -111.5v-242zM1167 1851v959q-146 0 -263.5 -49.5t-185 -143.5t-67.5 -221q0 -232 242 -381zM1323 1249v-1192q171 1 304.5 84.5t207.5 221.5t74 292q0 148 -68 235.5t-215 174.5z" />
    <glyph glyph-name="percent" unicode="%" horiz-adv-x="3277" 
d="M246 2269q0 159 68.5 310t207 248.5t338.5 97.5q149 0 292 -72.5t233 -221.5t90 -362q0 -315 -187 -485t-428 -170q-246 0 -430 170t-184 485zM541 2269q0 -284 89.5 -424.5t229.5 -140.5q139 0 229.5 140.5t90.5 424.5t-90.5 424.5t-229.5 140.5q-140 0 -229.5 -140.5
t-89.5 -424.5zM2949 2994l-2527 -3199l-94 82l2527 3195zM1802 598q0 314 187 484.5t428 170.5q153 0 293.5 -73t230.5 -221t90 -361q0 -314 -186.5 -484.5t-427.5 -170.5t-428 170.5t-187 484.5zM2097 598q0 -285 90 -425t230 -140t229.5 140.5t89.5 424.5t-89.5 424.5
t-229.5 140.5t-230 -140t-90 -425z" />
    <glyph glyph-name="ampersand" unicode="&#x26;" horiz-adv-x="3236" 
d="M2105 1167v90h955v-90h-152q-99 0 -165.5 -43t-170.5 -219q-169 -287 -356 -475q69 -128 182 -234t244 -106q149 0 319 156l58 -86q-137 -119 -262.5 -168t-282.5 -49q-317 0 -512 266q-354 -266 -725 -266q-286 0 -495.5 105.5t-318 282t-108.5 382.5q0 273 202 485.5
t597 386.5q-143 267 -143 541q0 161 70.5 292t201 208t301.5 77q191 0 310 -70t169 -176.5t50 -224.5q0 -392 -598 -598l679 -1114q103 103 203.5 262t100.5 250q0 135 -197 135h-156zM1909 295l-742 1184q-166 -92 -310 -247.5t-144 -387.5q0 -163 79 -334t234.5 -285
t370.5 -114q267 0 512 184zM1421 1733q402 180 402 524q0 171 -69.5 263.5t-160.5 92.5q-128 0 -221.5 -118.5t-93.5 -327.5q0 -193 143 -434z" />
    <glyph glyph-name="quotesingle" unicode="'" horiz-adv-x="983" 
d="M287 2867h409l-147 -819h-115z" />
    <glyph glyph-name="parenleft" unicode="(" horiz-adv-x="1749" 
d="M1503 -836l-53 -82q-273 167 -496 387.5t-381 474t-242.5 525.5t-84.5 535q0 264 84.5 535.5t242.5 525t383 475.5t494 385l53 -82q-266 -198 -433 -458.5t-247 -518t-105.5 -470.5t-25.5 -392t25.5 -392t105.5 -471t247.5 -518t432.5 -459z" />
    <glyph glyph-name="parenright" unicode=")" horiz-adv-x="1749" 
d="M246 2843l53 82q269 -163 495 -385.5t382.5 -473t241.5 -522t85 -540.5q0 -268 -85 -539.5t-241.5 -522.5t-380.5 -472.5t-497 -387.5l-53 82q264 197 432 458t248 519t105.5 471t25.5 392t-25.5 392t-105.5 470.5t-248 519t-432 457.5z" />
    <glyph glyph-name="asterisk" unicode="*" horiz-adv-x="1974" 
d="M1036 2343l45 -29l394 369q74 -25 123 -104t49 -191l-517 -156v-57l517 -156q0 -113 -49 -190.5t-123 -104.5l-394 369l-45 -29l123 -524q-71 -57 -172 -57t-172 57l123 524l-45 29l-393 -369q-72 27 -122 106.5t-50 188.5l516 156v57l-516 156q0 108 50.5 189t121.5 106
l393 -369l45 29l-123 524q72 58 172 58t172 -58z" />
    <glyph glyph-name="plus" unicode="+" horiz-adv-x="2621" 
d="M246 1352v164h983v983h164v-983h983v-164h-983v-983h-164v983h-983z" />
    <glyph glyph-name="comma" unicode="," horiz-adv-x="926" 
d="M291 -631l-66 62q89 84 178 232t89 247q0 34 -11 56.5t-29 37t-39.5 25.5t-52.5 28q-118 71 -118 209q0 94 62.5 145.5t158.5 51.5q109 0 173 -91t64 -220q0 -383 -409 -783z" />
    <glyph glyph-name="hyphen" unicode="-" horiz-adv-x="1475" 
d="M1229 1225v-246h-983v246h983z" />
    <glyph glyph-name="period" unicode="." horiz-adv-x="926" 
d="M246 160q0 87 62 152t155 65q85 0 151 -60t66 -157q0 -94 -64.5 -155.5t-152.5 -61.5q-93 0 -155 66.5t-62 150.5z" />
    <glyph glyph-name="slash" unicode="/" horiz-adv-x="2048" 
d="M1884 2867h164l-1884 -3744h-164z" />
    <glyph glyph-name="zero" unicode="0" 
d="M180 1434q0 253 55 516.5t165 483t281.5 355.5t395.5 136q294 0 497 -227.5t301.5 -573.5t98.5 -690t-98.5 -690t-301.5 -573.5t-497 -227.5q-295 0 -497.5 228t-301 573t-98.5 690zM582 1434q0 -769 145 -1073t350 -304q128 0 238.5 116t184 422.5t73.5 838.5
q0 531 -73.5 837.5t-184 422.5t-238.5 116t-238.5 -116t-183.5 -422.5t-73 -837.5z" />
    <glyph glyph-name="one" unicode="1" 
d="M1184 2925h131v-2626q0 -184 155 -184h254v-115h-1151v115h254q156 0 156 184v1995q-177 -160 -467 -344l-53 78q494 413 721 897z" />
    <glyph glyph-name="two" unicode="2" 
d="M1835 0h-1663v98l684 758q162 179 276 324t200.5 294.5t132.5 309t46 330.5q0 246 -109.5 471t-389.5 225q-181 0 -273 -106.5t-92 -221.5q0 -23 29 -110q20 -75 20 -136q0 -108 -70.5 -160.5t-154.5 -52.5q-59 0 -123.5 52t-64.5 182q0 147 85 303.5t259.5 260.5
t425.5 104q171 0 323 -50.5t266 -150.5t178 -249.5t64 -344.5q0 -239 -90 -447.5t-204.5 -348.5t-217.5 -232l-893 -815h836q429 0 450 172l13 102h114z" />
    <glyph glyph-name="three" unicode="3" 
d="M610 1446v188q165 -32 303 -32q181 0 373.5 121.5t192.5 541.5q0 179 -96.5 362t-387.5 183q-192 0 -280 -73t-88 -157q0 -32 16 -90q12 -48 12 -98q0 -102 -63 -149.5t-146 -47.5q-74 0 -131 58.5t-57 163.5q0 198 192.5 353t540.5 155q270 0 465.5 -93.5t297 -256
t101.5 -363.5q0 -133 -46.5 -247.5t-127 -196.5t-187 -133t-228.5 -66v-29q268 -42 484 -220t216 -517q0 -209 -115.5 -408t-344.5 -325.5t-552 -126.5q-261 0 -445.5 79t-275 201t-90.5 248q0 113 62.5 171t146.5 58q189 0 189 -208q0 -30 -25 -107q-16 -66 -16 -98
q0 -88 108 -159t314 -71q304 0 473.5 214t169.5 569q0 647 -656 647q-131 0 -299 -41z" />
    <glyph glyph-name="four" unicode="4" 
d="M1253 606h-1138v135q149 209 334 501.5t352 581t317.5 570t270.5 531.5l331 -209l-1499 -1995h1032v1069l332 283v-1352h373v-115h-373v-307q0 -184 156 -184h217v-115h-1077v115h217q155 0 155 184v307z" />
    <glyph glyph-name="five" unicode="5" 
d="M1794 2540h-1167l-90 -791q206 135 462 135q188 0 355 -50.5t300 -159t208 -275t75 -391.5q0 -253 -81 -454.5t-222.5 -336.5t-326.5 -204.5t-389 -69.5q-323 0 -534.5 139t-211.5 324q0 122 60.5 190t144.5 68q86 0 145.5 -57.5t59.5 -160.5q0 -48 -29 -122
q-29 -70 -29 -82q0 -66 104 -125.5t302 -59.5q138 0 276.5 77.5t236 282.5t97.5 558q0 231 -65 408t-203 275.5t-346 98.5q-254 0 -414 -180h-123l148 1290h917q152 0 228.5 24t95.5 103l20 78h115z" />
    <glyph glyph-name="six" unicode="6" 
d="M610 1540q284 225 590 225q230 0 414 -95.5t290.5 -293t106.5 -491.5q0 -302 -120 -515t-318.5 -320t-433.5 -107q-329 0 -540 183.5t-304.5 493t-93.5 691.5q0 280 66 563.5t203 523t350 383.5t491 144q202 0 342 -68.5t208 -179.5t68 -236q0 -97 -54 -142.5t-122 -45.5
q-113 0 -169 63.5t-56 157.5q0 22 6 72t6 75q0 71 -55.5 130t-169.5 59q-140 0 -295.5 -109t-275 -394.5t-134.5 -766.5zM606 1343q-8 -146 -8 -253q0 -423 117.5 -728t423.5 -305q282 0 380.5 251.5t98.5 547.5t-80.5 470t-194 239t-225.5 65q-141 0 -279.5 -71
t-232.5 -216z" />
    <glyph glyph-name="seven" unicode="7" 
d="M274 2867h1704l-311 -667q-83 -180 -185 -484.5t-197 -681t-150 -739.5q-22 -155 -76 -253.5t-199 -98.5q-209 0 -209 258q0 146 129 464t559 1178q242 482 340 697h-983q-195 0 -291 -64.5t-114 -214.5h-115z" />
    <glyph glyph-name="eight" unicode="8" 
d="M1311 1642q170 -82 293.5 -168.5t208.5 -190.5t129.5 -232.5t44.5 -288.5q0 -210 -99.5 -398t-303 -304.5t-494.5 -116.5q-441 0 -685.5 231.5t-244.5 575.5q0 301 176 497t430 285q-475 254 -475 643q0 171 80.5 344.5t265 289.5t473.5 116q234 0 413 -91t276 -243.5
t97 -333.5q0 -154 -83.5 -281t-215.5 -210.5t-286 -123.5zM1212 1708q410 160 410 578q0 178 -75.5 296.5t-198.5 173t-267 54.5q-243 0 -379.5 -144t-136.5 -315q0 -206 154.5 -338t492.5 -305zM864 1466q-220 -118 -316.5 -293t-96.5 -444q0 -202 91.5 -355.5t240.5 -235
t315 -81.5q195 0 326.5 91.5t195 233t63.5 286.5q0 261 -207.5 442t-611.5 356z" />
    <glyph glyph-name="nine" unicode="9" 
d="M1544 1327q-283 -225 -590 -225q-356 0 -583.5 222t-227.5 658q0 302 120 516t319.5 320.5t433.5 106.5q251 0 432.5 -108.5t292 -296t162 -432.5t51.5 -532q0 -279 -66 -562.5t-203 -522.5t-350 -383.5t-491 -144.5q-298 0 -458.5 144.5t-160.5 338.5q0 102 62.5 149.5
t134.5 47.5q89 0 147 -65t58 -165q0 -28 -6.5 -75t-6.5 -72q0 -70 56.5 -129.5t169.5 -59.5q140 0 295 109t274.5 393t134.5 768zM1548 1524q8 146 8 254q0 264 -44.5 493.5t-164.5 384t-331 154.5q-284 0 -381.5 -250t-97.5 -549q0 -296 80.5 -470t193 -239t225.5 -65
q138 0 278 70.5t234 216.5z" />
    <glyph glyph-name="colon" unicode=":" horiz-adv-x="926" 
d="M246 1720q0 88 61.5 152.5t155.5 64.5q85 0 151 -60t66 -157q0 -94 -64.5 -155.5t-152.5 -61.5q-84 0 -150.5 62t-66.5 155zM246 160q0 87 62 152t155 65q85 0 151 -60t66 -157q0 -94 -64.5 -155.5t-152.5 -61.5q-93 0 -155 66.5t-62 150.5z" />
    <glyph glyph-name="semicolon" unicode=";" horiz-adv-x="967" 
d="M266 1720q0 88 61.5 152.5t155.5 64.5q86 0 151.5 -59.5t65.5 -157.5q0 -94 -64.5 -155.5t-152.5 -61.5q-94 0 -155.5 67t-61.5 150zM311 -631l-65 62q93 89 179.5 234.5t86.5 244.5q0 34 -11 56.5t-29 37t-46.5 29.5t-44.5 24q-119 71 -119 209q0 94 63.5 145.5
t157.5 51.5q110 0 174 -91t64 -220q0 -383 -410 -783z" />
    <glyph glyph-name="less" unicode="&#x3c;" horiz-adv-x="2826" 
d="M184 1495l2384 983l74 -164l-2138 -880l2138 -881l-74 -164l-2384 983v123z" />
    <glyph glyph-name="equal" unicode="=" horiz-adv-x="2621" 
d="M246 1597v164h2130v-164h-2130zM246 1106v164h2130v-164h-2130z" />
    <glyph glyph-name="greater" unicode="&#x3e;" horiz-adv-x="2826" 
d="M2642 1372l-2384 -983l-74 164l2138 881l-2138 880l74 164l2384 -983v-123z" />
    <glyph glyph-name="question" unicode="?" horiz-adv-x="2064" 
d="M926 573h-115v488q0 163 93 282t259 263q169 141 271 282t102 357q0 144 -63.5 273t-198 210.5t-332.5 81.5q-135 0 -235.5 -60.5t-100.5 -128.5q0 -10 37 -114q12 -37 12 -111q0 -89 -65 -130.5t-139 -41.5q-90 0 -147.5 60.5t-57.5 160.5q0 106 72.5 218t220 187
t358.5 75q227 0 403 -67.5t291 -187.5t171.5 -277t56.5 -341q0 -221 -89 -386.5t-202.5 -265.5t-270.5 -204q-170 -113 -250.5 -197t-80.5 -200v-226zM651 160q0 87 62 152t155 65q86 0 151.5 -59.5t65.5 -157.5q0 -94 -64.5 -155.5t-152.5 -61.5q-83 0 -150 61.5t-67 155.5
z" />
    <glyph glyph-name="at" unicode="@" horiz-adv-x="3367" 
d="M2236 2216h291l-180 -1298q-16 -92 -16 -144q0 -160 139 -160q121 0 240.5 79.5t203.5 291t84 576.5q0 551 -268 827t-548.5 343t-465.5 67q-271 0 -515 -93.5t-432 -274t-294 -439.5t-106 -578q0 -301 87.5 -551.5t246.5 -427.5t373 -270.5t464 -93.5q203 0 430.5 51.5
t380.5 144.5l62 -123q-432 -200 -893 -200q-326 0 -583.5 113t-434.5 312.5t-266 455t-89 536.5q0 369 122.5 663.5t338.5 494.5t499.5 303.5t604.5 103.5q367 0 652 -109t475 -299.5t285 -437.5t95 -527q0 -312 -83 -523t-212 -325t-269 -159t-271 -45q-151 0 -239 82
t-101 200l-21 4q-104 -138 -262 -212t-336 -74q-187 0 -335.5 84t-232 240.5t-83.5 367.5q0 262 117 516t339 416t519 162q306 0 467 -213zM1475 606q177 0 307 103.5t207.5 267.5t113 350t35.5 356q0 222 -87.5 367t-276.5 145q-146 0 -271 -86t-215.5 -237t-138 -342
t-47.5 -400q0 -306 117 -415t256 -109z" />
    <glyph glyph-name="A" unicode="A" horiz-adv-x="2929" 
d="M1884 1118h-930l-94 -254q-126 -345 -149 -415.5t-23 -145.5q0 -78 33 -133t86 -55h164v-115h-832v115h78q103 0 238 209t352 794l668 1807h131l921 -2560q25 -72 54 -123t84 -89t145 -38h90v-115h-1049v115h164q81 0 122.5 24t41.5 94q0 59 -90 312zM995 1233h852
l-426 1180z" />
    <glyph glyph-name="B" unicode="B" horiz-adv-x="2908" 
d="M274 0v115h234q156 0 156 184v2273q0 181 -156 181h-234v114h1315q979 0 979 -680q0 -312 -209 -445.5t-446 -160.5v-16q194 -25 370.5 -112.5t292 -250t115.5 -399.5q0 -210 -89 -390t-310 -296.5t-592 -116.5h-1426zM1040 1630h476q218 0 360 76.5t206 204.5t64 280
q0 225 -137 393.5t-518 168.5q-252 0 -451 -91v-1032zM1040 1507v-1269q109 -73 207.5 -98t243.5 -25q390 0 572 197t182 483q0 287 -156 499.5t-582 212.5h-467z" />
    <glyph glyph-name="C" unicode="C" horiz-adv-x="3047" 
d="M2552 2867h131l57 -782h-131l-8 98q-11 138 -120 285t-304.5 244.5t-452.5 97.5q-243 0 -430 -110.5t-311.5 -306.5t-187 -451.5t-62.5 -544.5q0 -453 164 -746.5t416.5 -425t525.5 -131.5q599 0 946 721l103 -53q-206 -450 -511.5 -634.5t-668.5 -184.5
q-307 0 -569 105.5t-454.5 302.5t-295 466t-102.5 584q0 370 155 721.5t479 577t803 225.5q508 0 832 -201z" />
    <glyph glyph-name="D" unicode="D" horiz-adv-x="3359" 
d="M274 2867h1201q246 0 494 -33t522.5 -170t462.5 -443t188 -812q0 -241 -68 -479.5t-238 -450.5t-477 -345.5t-762 -133.5h-1323v115h234q156 0 156 184v2269q0 185 -156 185h-234v114zM1040 2626v-2409q237 -102 541 -102q395 0 645 190.5t359.5 486t109.5 613.5
q0 357 -115 665.5t-350 495.5t-571 187q-307 0 -619 -127z" />
    <glyph glyph-name="E" unicode="E" horiz-adv-x="2781" 
d="M274 2867h2180l49 -581h-131l-17 122q-18 146 -251 245.5t-765 99.5h-143q-156 0 -156 -185v-1003h185q319 0 478 31.5t201 80t42 121.5v103h131v-787h-131v103q0 71 -35.5 118t-193.5 81t-492 34h-185v-1151q0 -184 156 -184h57q612 0 891 120t314 297l20 103h131
l-135 -635h-2200v115h234q156 0 156 184v2269q0 185 -156 185h-234v114z" />
    <glyph glyph-name="F" unicode="F" horiz-adv-x="2634" 
d="M1511 0h-1237v115h234q156 0 156 184v2269q0 185 -156 185h-234v114h2180l49 -581h-131l-17 122q-18 146 -251 245.5t-765 99.5h-143q-156 0 -156 -185v-1003h185q319 0 478 31.5t201 80t42 121.5v103h131v-787h-131v103q0 71 -35.5 118t-193.5 81t-492 34h-185v-1151
q0 -184 156 -184h315v-115z" />
    <glyph glyph-name="G" unicode="G" horiz-adv-x="3256" 
d="M2040 1249h1175v-114h-172q-155 0 -155 -185v-655q-543 -352 -1114 -352q-448 0 -786.5 195.5t-519.5 536.5t-181 759q0 287 97 555.5t284 480.5t455 333.5t601 121.5q240 0 434.5 -36t320 -80.5t200.5 -84.5l-4 143h131l57 -782h-131l-8 98q-8 95 -79.5 203
t-202.5 205.5t-314 158t-404 60.5q-248 0 -436.5 -113t-312 -309t-183 -442.5t-59.5 -520.5q0 -479 149.5 -787t383.5 -444.5t499 -136.5q168 0 340.5 58t289 181t116.5 302v352q0 185 -156 185h-315v114z" />
    <glyph glyph-name="H" unicode="H" horiz-adv-x="3465" 
d="M1040 1552h1446v1016q0 185 -155 185h-234v114h1155v-114h-233q-156 0 -156 -185v-2269q0 -184 156 -184h233v-115h-1155v115h234q155 0 155 184v1139h-1446v-1139q0 -184 156 -184h234v-115h-1156v115h234q156 0 156 184v2269q0 185 -156 185h-234v114h1156v-114h-234
q-156 0 -156 -185v-1016z" />
    <glyph glyph-name="I" unicode="I" horiz-adv-x="1642" 
d="M274 2867h1156v-114h-234q-156 0 -156 -185v-2269q0 -184 156 -184h234v-115h-1156v115h234q156 0 156 184v2269q0 185 -156 185h-234v114z" />
    <glyph glyph-name="J" unicode="J" horiz-adv-x="1761" 
d="M393 2867h1155v-114h-233q-156 0 -156 -185v-2130q0 -457 -143 -763.5t-371 -449.5t-481 -143q-234 0 -363 109.5t-129 251.5q0 84 50 154.5t155 70.5q92 0 160.5 -51.5t68.5 -161.5q0 -16 -2 -44t-2 -50q0 -164 168 -164q117 0 233 83.5t197.5 307.5t81.5 609v2371
q0 185 -155 185h-234v114z" />
    <glyph glyph-name="K" unicode="K" horiz-adv-x="3199" 
d="M664 299v2269q0 185 -156 185h-234v114h1156v-114h-234q-156 0 -156 -185v-1110l852 791q328 298 328 417q0 87 -115 87h-200v114h1073v-114h-99q-216 0 -606 -345l-786 -704l1134 -1323q115 -135 226 -197.5t295 -68.5v-115h-693l-1237 1458l-172 -160v-999
q0 -184 156 -184h234v-115h-1156v115h234q156 0 156 184z" />
    <glyph glyph-name="L" unicode="L" horiz-adv-x="2609" 
d="M274 2867h1156v-114h-234q-156 0 -156 -185v-2269q0 -113 47.5 -146.5t129.5 -37.5q429 0 808 112t392 338l4 74h131l-49 -639h-2229v115h234q156 0 156 184v2269q0 185 -156 185h-234v114z" />
    <glyph glyph-name="M" unicode="M" horiz-adv-x="4010" 
d="M274 2867h828l971 -2306l979 2306h745v-114h-233q-156 0 -156 -185v-2269q0 -184 156 -184h233v-115h-1155v115h233q156 0 156 184v2204l-1053 -2503h-106l-1094 2585v-1364v-86q0 -429 56 -724.5t247 -295.5h78v-115h-885v115h78q128 0 191.5 166t79.5 395t16 545v1327
q0 135 -44 170t-112 35h-209v114z" />
    <glyph glyph-name="N" unicode="N" horiz-adv-x="3031" 
d="M0 2867h672l1753 -2261v1041v86q0 430 -56.5 725t-246.5 295h-78v114h926v-114h-119q-128 0 -191.5 -165t-79.5 -394t-16 -547v-1704h-147l-1782 2314v-1036v-86q0 -429 56.5 -724.5t246.5 -295.5h78v-115h-885v115h78q129 0 191.5 165t79 395t16.5 546v1204l-82 94
q-99 117 -193.5 175.5t-220.5 58.5v114z" />
    <glyph glyph-name="O" unicode="O" horiz-adv-x="3371" 
d="M287 1442q0 290 96.5 558.5t281.5 476.5t453.5 328t601.5 120q334 0 602 -119t454.5 -328t282 -475.5t95.5 -560.5q0 -297 -96.5 -569t-282.5 -481t-454.5 -329t-600.5 -120q-440 0 -765.5 205.5t-496.5 550t-171 743.5zM733 1442q0 -316 96 -633t318 -534.5t573 -217.5
t573.5 217.5t318 534.5t95.5 633q0 225 -49 458t-163.5 441.5t-307.5 338.5t-467 130q-329 0 -552 -198t-329 -511.5t-106 -658.5z" />
    <glyph glyph-name="P" unicode="P" horiz-adv-x="2757" 
d="M274 2867h1049q281 0 558 -55t496.5 -249.5t219.5 -571.5q0 -394 -312 -631.5t-868 -237.5q-177 0 -373 33v-856q0 -184 156 -184h316v-115h-1237v115h233q156 0 156 184v2269q0 185 -156 185h-238v114zM1044 2662v-1384q141 -41 299 -41q264 0 447.5 104.5t271.5 276
t88 373.5q0 166 -42 303.5t-129 241.5t-222 160.5t-315 56.5q-214 0 -398 -91z" />
    <glyph glyph-name="Q" unicode="Q" horiz-adv-x="3371" 
d="M741 -553l791 504q-435 59 -715.5 295t-405 556t-124.5 640q0 290 96.5 558.5t281.5 476.5t453.5 328t601.5 120q334 0 602 -119t454.5 -328t282 -475.5t95.5 -560.5q0 -299 -96.5 -569.5t-282 -480t-456 -329.5t-603.5 -120l-352 -222l12 -49q191 58 373 58
q261 0 557 -131q67 -30 175 -77t192.5 -71t165.5 -24q168 0 332.5 79t277.5 232l74 -57q-270 -599 -721 -599q-119 0 -214.5 30t-215 94t-226.5 122q-205 112 -369.5 171t-379.5 59q-313 0 -578 -217zM733 1442q0 -316 96 -633t318 -534.5t573 -217.5t573.5 217.5t318 534.5
t95.5 633q0 225 -49 458t-163.5 441.5t-307.5 338.5t-467 130q-329 0 -552 -198t-329 -511.5t-106 -658.5z" />
    <glyph glyph-name="R" unicode="R" horiz-adv-x="2994" 
d="M274 2867h1233q252 0 473 -49.5t380 -212t159 -471.5q0 -199 -85.5 -343t-226 -231t-308.5 -127t-334 -40v-29q203 -23 346 -127.5t246 -260.5t247 -431q16 -30 57 -112.5t83.5 -151t87 -111.5t88.5 -43q46 0 76 53.5t30 147.5h111q0 -169 -86 -277t-242 -108
q-171 0 -300.5 98.5t-219.5 238.5t-225 392q-149 269 -238.5 402t-211.5 219.5t-288 86.5q-57 0 -86 -4v-1077q0 -184 156 -184h234v-115h-1156v115h234q156 0 156 184v2269q0 185 -156 185h-234v114zM1040 2671v-1180q127 -16 271 -16q786 0 786 663q0 296 -191.5 455.5
t-492.5 159.5q-177 0 -373 -82z" />
    <glyph glyph-name="S" unicode="S" horiz-adv-x="2413" 
d="M1909 2867h131l24 -725h-131l-4 86q-6 150 -112.5 284.5t-286.5 216t-387 81.5q-237 0 -372.5 -120t-135.5 -294q0 -237 242 -381l847 -508q212 -125 344 -285.5t132 -422.5q0 -198 -88 -393.5t-295.5 -329t-538.5 -133.5q-462 0 -827 192l8 -135h-131l-54 741h132l4 -53
q12 -145 137 -293t320.5 -243t402.5 -95q190 0 332 84t216 221t74 293q0 143 -71.5 234t-210.5 176l-733 442q-216 131 -316 202.5t-173 185t-73 272.5q0 192 85 365t278.5 283t497.5 110q354 0 737 -177z" />
    <glyph glyph-name="T" unicode="T" horiz-adv-x="2793" 
d="M156 2867h2539v-639h-131v94q0 116 -123 216t-303.5 157.5t-335.5 57.5q-188 0 -188 -78v-2376q0 -184 155 -184h234v-115h-1155v115h233q156 0 156 184v2376q0 78 -188 78q-157 0 -337 -57.5t-302.5 -157t-122.5 -216.5v-94h-131v639z" />
    <glyph glyph-name="U" unicode="U" horiz-adv-x="3396" 
d="M274 2867h1156v-114h-234q-156 0 -156 -185v-1610q0 -357 123 -554.5t292.5 -265.5t342.5 -68q194 0 387 73.5t333 283t140 581.5v639v86q0 430 -56.5 725t-246.5 295h-98v114h926v-114h-99q-128 0 -191 -165t-79 -394t-16 -547v-643q0 -190 -43.5 -371t-153.5 -338
t-308.5 -254.5t-494.5 -97.5q-487 0 -810.5 234t-323.5 786v1605q0 185 -156 185h-234v114z" />
    <glyph glyph-name="V" unicode="V" horiz-adv-x="3129" 
d="M86 2867h1016v-114h-168q-83 0 -109 -32.5t-26 -86.5q0 -22 11 -48t21 -51l832 -2093l614 1467q238 570 238 700q0 144 -119 144h-192v114h839v-114q-118 -3 -204 -70t-161 -197.5t-172.5 -362t-211.5 -505.5l-709 -1675h-119l-1028 2592q-89 218 -311 218h-41v114z" />
    <glyph glyph-name="W" unicode="W" horiz-adv-x="4448" 
d="M86 2867h1094v-114h-201q-139 0 -139 -111q0 -44 20 -107l688 -2035l582 1503l-176 532q-31 96 -92.5 157t-214.5 61h-99v114h1131v-114h-238q-123 0 -123 -111q0 -41 25 -107l684 -2035l528 1409q189 507 189 700q0 144 -140 144h-184v114h942v-114q-138 -3 -247 -101.5
t-228 -336.5t-295 -697l-643 -1675h-115l-639 1847l-716 -1847h-119l-885 2592q-76 218 -295 218h-94v114z" />
    <glyph glyph-name="X" unicode="X" horiz-adv-x="3121" 
d="M229 2867h1131v-114h-258q-82 0 -82 -70q0 -31 70 -135l565 -860q105 131 385 520q246 343 246 458q0 87 -152 87h-197v114h1016v-114h-90q-109 0 -232.5 -93.5t-278.5 -277t-402 -510.5q-62 -83 -117 -157t-104 -138l679 -1020q161 -240 271.5 -341t302.5 -101v-115
h-1118v115h233q66 0 86 61v45q-5 18 -49 82l-643 963q-709 -930 -709 -1069q0 -82 99 -82h221v-115h-905v115q153 38 283.5 140.5t264 263.5t455.5 579q49 59 97.5 122t119.5 152l-684 1032q-115 175 -226.5 260.5t-277.5 88.5v114z" />
    <glyph glyph-name="Y" unicode="Y" horiz-adv-x="2916" 
d="M86 2867h1110v-114h-225q-90 0 -90 -70q0 -46 24 -94l692 -1258l312 529q149 255 242.5 477t93.5 321q0 95 -111 95h-229v114h925v-114q-138 0 -241 -84.5t-179.5 -203.5t-316.5 -519l-451 -750v-897q0 -184 156 -184h234v-115h-1155v115h233q156 0 156 184v872
l-738 1340q-131 242 -442 242v114z" />
    <glyph glyph-name="Z" unicode="Z" horiz-adv-x="2662" 
d="M438 2867h1925v-114l-1642 -2638h373q449 0 720 61.5t380 149t116 174.5l8 90h131l-86 -590h-2089v115l1655 2638h-413q-281 0 -504 -47t-347 -126t-133 -172l-12 -131h-131z" />
    <glyph glyph-name="bracketleft" unicode="[" horiz-adv-x="1540" 
d="M410 2925h884v-91h-372q-156 0 -156 -184v-3293q0 -184 156 -184h372v-91h-884v3843z" />
    <glyph glyph-name="backslash" unicode="\" horiz-adv-x="2048" 
d="M0 2867h164l1884 -3744h-164z" />
    <glyph glyph-name="bracketright" unicode="]" horiz-adv-x="1540" 
d="M246 2925h884v-3843h-884v91h372q156 0 156 184v3293q0 184 -156 184h-372v91z" />
    <glyph glyph-name="asciicircum" unicode="^" horiz-adv-x="1999" 
d="M999 2925l877 -1287h-184l-693 1020l-692 -1020h-184z" />
    <glyph glyph-name="underscore" unicode="_" horiz-adv-x="2376" 
d="M0 -877v164h2376v-164h-2376z" />
    <glyph glyph-name="grave" unicode="`" horiz-adv-x="1278" 
d="M868 2269l-77 -45l-525 643q-61 72 -61 148q0 63 56.5 117.5t131.5 54.5q130 0 180 -140z" />
    <glyph glyph-name="a" unicode="a" horiz-adv-x="1917" 
d="M1249 1130v213q0 137 -26 243t-125.5 183.5t-298.5 77.5q-142 0 -190 -42.5t-48 -84.5q0 -25 8 -65q13 -42 13 -86q0 -90 -54 -135t-131 -45q-83 0 -129.5 58.5t-46.5 137.5q0 137 140.5 244.5t424.5 107.5q775 0 775 -594v-1069q0 -159 90 -159q95 0 151 159l90 -36
q-33 -105 -116 -194t-236 -89q-161 0 -226 112.5t-65 243.5q-293 -356 -684 -356q-200 0 -317 114t-117 291q0 172 88.5 301t241 217t347 147.5t441.5 104.5zM1249 430v610q-311 -59 -477.5 -157.5t-225.5 -213t-59 -243.5q0 -147 69.5 -229t184.5 -82q235 0 508 315z" />
    <glyph glyph-name="b" unicode="b" horiz-adv-x="2204" 
d="M446 -45h-90v2908q0 53 -59 69.5t-199 16.5h-49v90q239 11 619 156v-1430q222 172 540 172q258 0 451 -130.5t295 -351t102 -480.5q0 -251 -85.5 -445.5t-226 -321.5t-306.5 -190t-328 -63q-135 0 -292.5 47t-268.5 158zM668 1614v-1151q0 -209 136 -313.5t310 -104.5
q128 0 260.5 76t229 282t96.5 568q0 442 -176 651t-430 209q-202 0 -426 -217z" />
    <glyph glyph-name="c" unicode="c" horiz-adv-x="1884" 
d="M1679 557l82 -20q-64 -212 -244 -397t-522 -185q-227 0 -420.5 108t-310.5 328t-117 531q0 290 117.5 522t332.5 362.5t497 130.5q264 0 416.5 -101t152.5 -251q0 -102 -61 -157.5t-136 -55.5q-72 0 -130 50t-58 130q0 38 10 77t10 75q0 52 -56.5 97.5t-168.5 45.5
q-207 0 -335 -147t-181 -359.5t-53 -418.5q0 -358 159 -595t443 -237q220 0 369.5 138t203.5 329z" />
    <glyph glyph-name="d" unicode="d" horiz-adv-x="2286" 
d="M2154 0h-524l-61 176q-148 -118 -274 -169.5t-279 -51.5q-271 0 -468 130.5t-299 352.5t-102 488q0 281 119.5 512.5t336 365t495.5 133.5q221 0 438 -77v1003q0 53 -59 69.5t-199 16.5h-49v90q239 11 618 156v-2740q0 -172 35 -268.5t162 -96.5h110v-90zM1536 307v1307
q-50 117 -160 175t-246 58q-175 0 -318 -107t-225.5 -314.5t-82.5 -495.5q0 -249 68.5 -442t197.5 -303.5t303 -110.5q85 0 219 42.5t244 190.5z" />
    <glyph glyph-name="e" unicode="e" horiz-adv-x="1872" 
d="M1749 1081h-1241q-4 -53 -4 -155q0 -305 86 -489.5t218.5 -259.5t281.5 -75q370 0 569 381l74 -41q-84 -158 -183 -266t-230 -164.5t-308 -56.5q-174 0 -330.5 62t-277.5 185.5t-189 302.5t-68 404q0 285 103 521t299 371.5t463 135.5q254 0 420 -129.5t241.5 -326
t75.5 -400.5zM508 1171h905v58q0 326 -117.5 472t-291.5 146q-99 0 -202 -52.5t-187.5 -204.5t-106.5 -419z" />
    <glyph glyph-name="f" unicode="f" horiz-adv-x="1241" 
d="M438 1757h-307v135h307v62q0 296 91.5 575t257.5 452t376 173q120 0 201.5 -64.5t81.5 -164.5q0 -79 -44.5 -132t-123.5 -53q-78 0 -135.5 49t-57.5 136q0 102 -73 102q-262 0 -262 -848v-106v-181h483v-135h-483v-1569q0 -58 34 -78t113 -20h160v-90h-926v90h160
q79 0 113 20t34 78v1569z" />
    <glyph glyph-name="g" unicode="g" horiz-adv-x="2081" 
d="M668 815v16q-211 30 -339 182t-128 326q0 158 94.5 294.5t281.5 220t443 83.5q218 0 393 -77q129 286 369 286q96 0 148 -45t52 -114q0 -59 -39.5 -101.5t-91.5 -42.5q-90 0 -151 66q-35 49 -90 49q-37 0 -76.5 -39t-54.5 -84q344 -195 344 -496q0 -143 -84.5 -276.5
t-272.5 -221t-475 -87.5q-64 0 -122 4t-95 4q-229 0 -229 -168q0 -86 97.5 -125t266.5 -68l484 -73q630 -94 630 -586q0 -134 -79.5 -283.5t-308 -263t-631.5 -113.5q-295 0 -510 83t-326 226t-111 314q0 152 74.5 258t193.5 161.5t244 63.5v25q-129 25 -214 109.5
t-85 185.5q0 102 112 196t286 111zM1008 1847q-192 0 -292.5 -100t-129.5 -210.5t-29 -180.5q0 -210 105 -361t337 -151q150 0 255 66t158.5 183t53.5 263q0 207 -119 349t-339 142zM1294 41l-557 86q-112 -15 -202 -78.5t-140.5 -161.5t-50.5 -211q0 -252 187 -377.5
t473 -125.5q253 0 427.5 68.5t258.5 179t84 235.5q0 311 -480 385z" />
    <glyph glyph-name="h" unicode="h" horiz-adv-x="2294" 
d="M1057 0h-926v90h160q79 0 113 20t34 78v2675q0 53 -59 69.5t-199 16.5h-49v90q316 41 619 156v-1466q307 208 573 208q159 0 288 -70t207 -228.5t78 -409.5v-1041q0 -57 34.5 -77.5t113.5 -20.5h160v-90h-926v90h160q79 0 113 20t34 78v1078q0 264 -110.5 398t-307.5 134
q-105 0 -220 -58.5t-197 -150.5v-1401q0 -58 34 -78t113 -20h160v-90z" />
    <glyph glyph-name="i" unicode="i" horiz-adv-x="1188" 
d="M1057 0h-926v90h160q79 0 113 20t34 78v1454q0 53 -58.5 70t-199.5 17h-49v90q242 11 619 155v-1786q0 -58 34 -78t113 -20h160v-90zM336 2503q0 77 58 140.5t147 63.5q79 0 144 -57.5t65 -146.5q0 -88 -66 -148.5t-143 -60.5q-87 0 -146 65.5t-59 143.5z" />
    <glyph glyph-name="j" unicode="j" horiz-adv-x="1159" 
d="M438 -180v1822q0 53 -58.5 70t-199.5 17h-49v90q242 11 619 155v-1970q0 -173 -70.5 -389t-232 -374.5t-414.5 -158.5q-146 0 -229 89t-83 194q0 75 50.5 127.5t117.5 52.5q79 0 132 -49t53 -151q0 -13 -4 -30t-4 -28q0 -98 81 -98q291 0 291 631zM336 2503
q0 77 58.5 140.5t150.5 63.5q89 0 147 -63t58 -141q0 -80 -59 -144.5t-146 -64.5q-92 0 -150.5 66t-58.5 143z" />
    <glyph glyph-name="k" unicode="k" horiz-adv-x="2212" 
d="M1016 0h-926v90h160q79 0 113 20t34 78v2675q0 53 -57.5 69.5t-200.5 16.5h-49v90q239 11 619 156v-2429q415 474 553.5 671.5t138.5 270.5q0 94 -168 94h-82v90h827v-90h-86q-57 0 -113.5 -30.5t-157.5 -129.5t-298 -319q-42 -46 -79.5 -87.5t-92.5 -96.5l696 -901
q81 -100 134.5 -124t127.5 -24h54v-90h-926v90h143q127 0 127 78q0 35 -28 70l-508 675l-262 -290v-435q0 -58 34 -78t113 -20h160v-90z" />
    <glyph glyph-name="l" unicode="l" horiz-adv-x="1188" 
d="M1057 0h-926v90h160q79 0 113 20t34 78v2675q0 53 -59 69.5t-199 16.5h-49v90q239 11 619 156v-3007q0 -58 34 -78t113 -20h160v-90z" />
    <glyph glyph-name="m" unicode="m" horiz-adv-x="3301" 
d="M1012 0h-881v90h160q79 0 113 20t34 78v1454q0 53 -58.5 70t-199.5 17h-49v90q242 11 619 155v-237q286 200 512 200q325 0 471 -229q285 229 577 229q229 0 411.5 -160t182.5 -474v-1115q0 -58 34.5 -78t113.5 -20h159v-90h-880v90h114q80 0 114 20t34 78v1102
q0 254 -114.5 387t-299.5 133q-200 0 -401 -196q49 -133 49 -303v-1123q0 -58 34 -78t113 -20h115v-90h-840v90h119q79 0 113.5 20t34.5 78v1123q0 205 -85.5 352t-279.5 147q-213 0 -401 -196v-1426q0 -58 34 -78t113 -20h115v-90z" />
    <glyph glyph-name="n" unicode="n" horiz-adv-x="2294" 
d="M1057 0h-926v90h160q79 0 113 20t34 78v1454q0 53 -58.5 70t-199.5 17h-49v90q314 40 619 155v-245q307 208 573 208q159 0 288 -70t207 -228.5t78 -409.5v-1041q0 -57 34.5 -77.5t113.5 -20.5h160v-90h-926v90h160q79 0 113 20t34 78v1078q0 264 -110.5 398t-307.5 134
q-105 0 -220 -58.5t-197 -150.5v-1401q0 -58 34 -78t113 -20h160v-90z" />
    <glyph glyph-name="o" unicode="o" horiz-adv-x="2130" 
d="M147 946q0 170 48.5 342.5t158.5 322t288.5 238t422.5 88.5q218 0 388.5 -75t288.5 -210.5t179 -316t61 -389.5q0 -278 -107.5 -503.5t-316 -356.5t-493.5 -131q-244 0 -423 90t-288 237.5t-158 320.5t-49 343zM504 946q0 -536 179.5 -718.5t381.5 -182.5
q204 0 382.5 182t178.5 719q0 374 -96.5 575t-221.5 263.5t-243 62.5q-203 0 -382 -182.5t-179 -718.5z" />
    <glyph glyph-name="p" unicode="p" horiz-adv-x="2204" 
d="M1016 -877h-926v91h160q79 0 113 20t34 78v2330q0 53 -57.5 70t-200.5 17h-49v90q242 11 619 155v-229q246 192 508 192q225 0 417 -114.5t307 -340t115 -532.5q0 -256 -102 -485.5t-299 -369.5t-463 -140q-306 0 -483 119v-762q0 -58 34 -78t113 -20h160v-91zM709 1638
v-1306q0 -62 50.5 -130t151 -112.5t236.5 -44.5q143 0 270.5 103t205 305.5t77.5 488.5q0 246 -62.5 439.5t-195.5 305t-336 111.5q-253 0 -397 -160z" />
    <glyph glyph-name="q" unicode="q" horiz-adv-x="2163" 
d="M2114 -877h-926v91h160q79 0 113 20t34 78v831q-254 -188 -557 -188q-218 0 -398.5 122t-286.5 348t-106 521q0 258 109 486.5t316 366.5t481 138q176 0 306.5 -42.5t250.5 -153.5l110 196h86v-2625q0 -58 34.5 -78t113.5 -20h160v-91zM1495 283v1224q0 94 -55.5 172
t-156.5 123t-230 45q-243 0 -396 -247t-153 -666q0 -453 168 -656.5t385 -203.5q116 0 235 57.5t203 151.5z" />
    <glyph glyph-name="r" unicode="r" horiz-adv-x="1593" 
d="M1057 0h-926v90h160q79 0 113 20t34 78v1454q0 53 -58.5 70t-199.5 17h-49v90q242 11 619 155v-430q177 393 467 393q146 0 236.5 -69.5t90.5 -175.5q0 -77 -43.5 -143t-128.5 -66q-74 0 -125 53.5t-51 134.5q0 107 -106 107q-86 0 -164.5 -98t-127 -241t-48.5 -259v-992
q0 -58 34 -78t113 -20h160v-90z" />
    <glyph glyph-name="s" unicode="s" horiz-adv-x="1597" 
d="M1237 1892h102l17 -512h-103v66q0 77 -71 172t-197 162t-276 67q-149 0 -226 -88t-77 -211q0 -88 58.5 -152t130 -102t286.5 -139q245 -114 407 -255.5t162 -383.5q0 -140 -74 -269t-221.5 -210.5t-351.5 -81.5q-255 0 -533 135l4 -90h-102l-25 537h103q4 -123 84.5 -237
t211.5 -184.5t273 -70.5q176 0 270.5 111t94.5 250q0 89 -40 157.5t-104.5 117.5t-140.5 88t-190 95q-285 146 -409 264t-124 306q0 213 156 358t438 145q254 0 467 -118v73z" />
    <glyph glyph-name="t" unicode="t" horiz-adv-x="1552" 
d="M377 1790h-307v102q217 13 368.5 152t151.5 459v45h98v-656q219 0 323.5 11t323.5 51v-164h-647v-1315q0 -194 91 -283.5t216 -89.5q140 0 245 120t132 261l90 -37q-150 -491 -557 -491q-240 0 -384 156.5t-144 437.5v1241z" />
    <glyph glyph-name="u" unicode="u" horiz-adv-x="2281" 
d="M2150 0h-618v258q-217 -192 -366 -247.5t-302 -55.5q-179 0 -323 127.5t-144 474.5v1085q0 53 -57.5 70t-200.5 17h-49v90q242 11 619 155v-1417q0 -446 323 -446q117 0 259.5 77.5t240.5 184.5v1269q0 53 -58.5 70t-199.5 17h-49v90q241 11 618 155v-1786
q0 -58 34.5 -78t113.5 -20h159v-90z" />
    <glyph glyph-name="v" unicode="v" 
d="M49 1892h889v-90h-143q-58 0 -99 -27t-41 -75q0 -13 17 -66l512 -1233l258 656q48 120 122 336t74 282q0 78 -50 102.5t-146 24.5h-90v90h753v-90h-94q-93 0 -190 -162t-265 -583l-442 -1102h-74l-696 1679q-68 168 -188 168h-107v90z" />
    <glyph glyph-name="w" unicode="w" horiz-adv-x="3068" 
d="M49 1892h762v-90h-33q-160 0 -160 -82q0 -24 13 -57l495 -1270l357 930l-123 340q-49 139 -209 139h-45v90h762v-90h-82q-131 0 -131 -73q0 -16 20 -66l471 -1270l267 684q204 525 204 627q0 64 -29.5 81t-105.5 17h-127v90h664v-90h-70q-80 0 -154.5 -106t-133.5 -245.5
t-179 -455.5l-397 -1040h-82l-467 1245l-459 -1245h-102l-664 1708q-54 139 -192 139h-70v90z" />
    <glyph glyph-name="x" unicode="x" horiz-adv-x="2114" 
d="M934 913l-475 689q-57 80 -139 138.5t-230 61.5v90h877v-90h-140q-90 0 -90 -45q0 -33 29 -82l356 -532l242 336q115 154 115 250q0 73 -82 73h-152v90h737v-90h-73q-104 0 -194 -80.5t-228 -259.5l-307 -397l557 -811q112 -164 319 -164v-90h-934v90h172q111 0 111 70
q0 36 -29 94l-381 577l-270 -360q-135 -180 -135 -278q0 -67 48.5 -85t135.5 -18h90v-90h-774v90h49q153 0 512 463z" />
    <glyph glyph-name="y" unicode="y" horiz-adv-x="2163" 
d="M2105 1892v-90h-61q-80 0 -136.5 -74.5t-129 -259.5t-164.5 -424l-545 -1376q-96 -240 -239.5 -413t-387.5 -173q-135 0 -233 77t-98 194q0 82 49 137t127 55q175 0 192 -188q11 -127 99 -127q87 0 195 116.5t198 354.5l102 266l-713 1688q-55 147 -221 147h-82v90h844
v-90h-139q-107 0 -107 -78q0 -32 17 -69l553 -1315l172 475q241 668 241 860q0 127 -127 127h-110v90h704z" />
    <glyph glyph-name="z" unicode="z" horiz-adv-x="1724" 
d="M213 1892h1372v-90l-1147 -1712h197q825 0 848 299l8 115h102l-37 -504h-1466v90l1118 1712h-139q-392 0 -581.5 -93.5t-196.5 -221.5l-4 -98h-103z" />
    <glyph glyph-name="braceleft" unicode="{" horiz-adv-x="1438" 
d="M1208 2925v-115q-307 -50 -307 -475q0 -90 10.5 -206t10.5 -282q0 -178 -49 -344.5t-157 -299t-278 -199.5q170 -69 278 -201t157 -298.5t49 -344.5q0 -166 -10.5 -282t-10.5 -206q0 -425 307 -475v-115q-140 11 -276.5 84t-235 253.5t-98.5 482.5q0 41 6 144t6 155
q0 716 -381 741v123q381 25 381 741q0 52 -6 155t-6 144q0 302 98.5 482.5t235 253.5t276.5 84z" />
    <glyph glyph-name="bar" unicode="|" horiz-adv-x="623" 
d="M229 -918v4314h164v-4314h-164z" />
    <glyph glyph-name="braceright" unicode="}" horiz-adv-x="1438" 
d="M229 -918v115q183 30 245.5 172t62.5 303q0 100 -10.5 216t-10.5 272q0 178 49 344.5t157.5 299t276.5 200.5q-168 67 -276.5 199.5t-157.5 299t-49 344.5q0 128 2.5 170t10.5 138t8 180q0 161 -62.5 303.5t-245.5 171.5v115q140 -11 277 -84t235.5 -253.5t98.5 -482.5
q0 -54 -6.5 -150.5t-6.5 -148.5q0 -397 108.5 -563.5t272.5 -177.5v-123q-164 -11 -272.5 -177.5t-108.5 -563.5q0 -52 6.5 -148.5t6.5 -150.5q0 -302 -98.5 -482.5t-235.5 -253.5t-277 -84z" />
    <glyph glyph-name="asciitilde" unicode="~" horiz-adv-x="2220" 
d="M369 1044h-123q41 126 126 229.5t199.5 162.5t239.5 59q137 0 389 -94q264 -94 389 -94q169 0 262 188h123q-113 -253 -230.5 -356t-277.5 -103q-172 0 -389 82q-299 111 -397 111q-97 0 -181 -50.5t-130 -134.5z" />
    <glyph glyph-name="afii10051" horiz-adv-x="3408" 
d="M127 2867h2474v-639h-131v94q0 104 -113 204.5t-293 163.5t-364 63q-189 0 -189 -78v-996q353 119 652 119q302 0 534.5 -107t363 -307.5t130.5 -461.5q0 -237 -102.5 -458t-298 -359t-459.5 -138q-310 0 -456 136.5t-146 289.5q0 100 71 156.5t162 56.5q109 0 165 -64.5
t56 -152.5q0 -28 -8 -78q-12 -42 -12 -86q0 -49 52.5 -94t135.5 -45q145 0 269 160.5t124 589.5q0 366 -161.5 594.5t-493.5 228.5q-292 0 -578 -103v-1556h-770v115h234q160 0 160 184v2376q0 78 -189 78q-159 0 -320 -58.5t-264.5 -159t-103.5 -213.5v-94h-131v639z" />
    <glyph glyph-name="afii10052" horiz-adv-x="2286" 
d="M1511 0h-1237v115h234q156 0 156 155v2343q0 65 -46 102.5t-110 37.5h-234v114h1962l50 -594h-132l-16 135q-15 141 -200.5 243t-634.5 102h-66q-89 0 -143 -35t-54 -154v-2294q0 -155 156 -155h315v-115z" />
    <glyph glyph-name="quotesinglbase" unicode="&#x201a;" horiz-adv-x="926" 
d="M291 -631l-66 62q89 84 178 232t89 247q0 34 -11 56.5t-29 37t-39.5 25.5t-52.5 28q-118 71 -118 209q0 94 62.5 145.5t158.5 51.5q109 0 173 -91t64 -220q0 -383 -409 -783z" />
    <glyph glyph-name="afii10100" unicode="&#x192;" horiz-adv-x="1704" 
d="M131 0v90h160q79 0 113 20t34 78v1516q0 59 -34 78.5t-113 19.5h-160v90h1524v-503h-103v36q0 148 -143.5 262.5t-515.5 114.5h-49q-94 0 -94 -98v-1516q0 -58 34 -78t113 -20h201v-90h-967z" />
    <glyph glyph-name="quotedblbase" unicode="&#x201e;" horiz-adv-x="1630" 
d="M291 -631l-66 62q89 84 178 232t89 247q0 34 -11 56.5t-29 37t-39.5 25.5t-52.5 28q-118 71 -118 209q0 94 62.5 145.5t158.5 51.5q109 0 173 -91t64 -220q0 -383 -409 -783zM995 -631l-65 62q93 89 179.5 234.5t86.5 244.5q0 34 -11 56.5t-29 37t-46.5 29.5t-44.5 24
q-119 71 -119 209q0 94 63.5 145.5t157.5 51.5q110 0 174 -91t64 -220q0 -383 -410 -783z" />
    <glyph glyph-name="ellipsis" unicode="&#x2026;" horiz-adv-x="2777" 
d="M246 160q0 87 62 152t155 65q85 0 151 -60t66 -157q0 -94 -64.5 -155.5t-152.5 -61.5q-93 0 -155 66.5t-62 150.5zM1171 160q0 87 62.5 152t155.5 65q85 0 151 -60t66 -157q0 -93 -65 -155t-152 -62q-84 0 -151 61.5t-67 155.5zM2097 160q0 87 62 152t155 65
q97 0 157 -66t60 -151q0 -94 -64.5 -155.5t-152.5 -61.5q-83 0 -150 61.5t-67 155.5z" />
    <glyph glyph-name="dagger" unicode="&#x2020;" horiz-adv-x="2253" 
d="M1044 -877v1209q0 326 -22 540t-92 426q135 284 135 541q-119 0 -328 -86q-181 -78 -250 -78q-105 0 -173 55.5t-68 165.5q0 109 67.5 165.5t173.5 56.5q60 0 230 -74q187 -89 352 -102q0 201 -111 462q-69 173 -69 226q0 119 54 207t183 88q131 0 184.5 -88t53.5 -207
q0 -56 -70 -226q-110 -264 -110 -462q165 13 352 102q170 74 229 74q106 0 174 -56.5t68 -165.5q0 -110 -68.5 -165.5t-173.5 -55.5q-68 0 -249 78q-209 86 -328 86q0 -257 135 -541q-70 -212 -92.5 -424.5t-22.5 -541.5v-1209h-164z" />
    <glyph glyph-name="perthousand" unicode="&#x2030;" horiz-adv-x="4833" 
d="M246 2269q0 159 68.5 310t207 248.5t338.5 97.5q149 0 292 -72.5t233 -221.5t90 -362q0 -315 -187 -485t-428 -170q-246 0 -430 170t-184 485zM541 2269q0 -284 89.5 -424.5t229.5 -140.5q139 0 229.5 140.5t90.5 424.5t-90.5 424.5t-229.5 140.5q-140 0 -229.5 -140.5
t-89.5 -424.5zM2949 2994l-2527 -3199l-94 82l2527 3195zM1802 598q0 314 187 484.5t428 170.5q153 0 293.5 -73t230.5 -221t90 -361q0 -314 -186.5 -484.5t-427.5 -170.5t-428 170.5t-187 484.5zM2097 598q0 -285 90 -425t230 -140t229.5 140.5t89.5 424.5t-89.5 424.5
t-229.5 140.5t-230 -140t-90 -425zM3359 598q0 313 186.5 484t427.5 171t428 -170.5t187 -484.5t-187 -484.5t-428 -170.5t-427.5 171t-186.5 484zM3654 598q0 -284 89.5 -424.5t229.5 -140.5q139 0 229.5 140.5t90.5 424.5t-90.5 424.5t-229.5 140.5q-140 0 -229.5 -140.5
t-89.5 -424.5z" />
    <glyph glyph-name="afii10058" unicode="&#x160;" horiz-adv-x="4305" 
d="M750 2867h2175v-114h-234q-156 0 -156 -185v-876q263 49 476 49q349 0 600.5 -114t380.5 -317t129 -470q0 -289 -127 -465.5t-313.5 -256t-357.5 -99t-333 -19.5h-1221v115h234q156 0 156 184v2269q0 185 -156 185h-234q-170 0 -252 -40t-108 -107.5t-41 -188.5
q-86 -730 -177.5 -1201t-199.5 -752.5t-237 -401t-299 -119.5q-172 0 -285 92t-113 239q0 111 60.5 182.5t165.5 71.5q108 0 164.5 -61.5t56.5 -147.5q0 -19 -8 -61q-9 -36 -9 -53q0 -37 21 -61.5t53 -24.5q180 0 365 569q61 190 133 553t123 725.5t51 527.5q0 123 -55 191
t-158 68h-270v114zM2535 1577v-1368q212 -94 406 -94q333 0 531 198t198 564q0 436 -237 584.5t-537 148.5q-199 0 -361 -33z" />
    <glyph glyph-name="quilsinglleft" unicode="&#x2039;" horiz-adv-x="1802" 
d="M754 946l802 -880l-61 -66q-232 202 -426 359.5t-392.5 299t-430.5 287.5q345 218 616 424.5t633 521.5l61 -65z" />
    <glyph glyph-name="afii10059" unicode="&#x152;" horiz-adv-x="4633" 
d="M274 2867h1156v-114h-234q-156 0 -156 -185v-934h1446v934q0 185 -155 185h-234v114h1155v-114h-233q-156 0 -156 -185v-876q263 49 475 49q349 0 600.5 -113.5t380.5 -317.5t129 -470q0 -289 -127.5 -466t-313 -256t-356.5 -98.5t-333 -19.5h-1221v115h234
q155 0 155 184v1221h-1446v-1221q0 -184 156 -184h234v-115h-1156v115h234q156 0 156 184v2269q0 185 -156 185h-234v114zM2863 1577v-1368q211 -94 406 -94q333 0 531 198t198 564q0 436 -237 584.5t-537 148.5q-199 0 -361 -33z" />
    <glyph glyph-name="afii10061" horiz-adv-x="3035" 
d="M1040 1610h164q120 0 204.5 38.5t187.5 173t239 406.5q118 235 207 374.5t212.5 231t285.5 91.5q142 0 216 -75t74 -184q0 -106 -65 -161.5t-148 -55.5q-85 0 -140.5 56.5t-55.5 144.5q0 7 2 27t2 30q0 58 -41 58q-78 0 -136.5 -109t-121.5 -280q-87 -241 -183 -409
t-213 -269.5t-264 -141.5v-20q271 -32 472.5 -182t336.5 -370t244 -505q86 -218 131 -289t98 -71q51 0 83.5 55.5t35.5 124.5h111q-27 -356 -340 -356q-177 0 -323.5 131.5t-256.5 317.5t-246 469t-190 372q-160 262 -418 262h-164v-1196q0 -184 156 -184h234v-115h-1156
v115h234q156 0 156 184v2269q0 185 -156 185h-234v114h1156v-114h-234q-156 0 -156 -185v-958z" />
    <glyph glyph-name="afii10060" horiz-adv-x="3551" 
d="M127 2867h2474v-639h-131v94q0 104 -113 204.5t-293 163.5t-364 63q-189 0 -189 -78v-1180q524 287 975 287q358 0 459.5 -177t101.5 -417v-889q0 -184 156 -184h234v-115h-1127v115h205q156 0 156 184v954q0 223 -136 286t-274 63q-299 0 -750 -230v-1073
q0 -184 156 -184h234v-115h-1160v115h234q160 0 160 184v2376q0 78 -189 78q-159 0 -320 -58.5t-264.5 -159t-103.5 -213.5v-94h-131v639z" />
    <glyph glyph-name="afii10145" horiz-adv-x="3166" 
d="M274 2867h1156v-114h-234q-156 0 -156 -185v-2269q0 -184 156 -184h975q156 0 156 184v2269q0 185 -156 185h-234v114h1155v-114h-233q-156 0 -156 -185v-2269q0 -184 156 -184h233v-115h-1347l131 -635q8 -58 8 -78q0 -103 -59.5 -154t-141.5 -51q-81 0 -140.5 51.5
t-59.5 153.5q0 20 8 78l131 635h-1348v115h234q156 0 156 184v2269q0 185 -156 185h-234v114z" />
    <glyph glyph-name="afii10099" horiz-adv-x="2216" 
d="M438 2384h-397v115h397v364q0 53 -59 69.5t-199 16.5h-49v90q316 41 619 156v-696h770v-115h-770v-655q138 103 265 155.5t283 52.5q448 0 609 -398t161 -884q0 -255 -58.5 -530t-175.5 -513.5t-289.5 -384t-389.5 -145.5q-197 0 -319.5 81.5t-122.5 213.5q0 83 58.5 132
t133.5 49q82 0 125 -60t43 -129q0 -29 -8 -54t-8 -52q0 -34 38 -62t105 -28q148 0 264 159.5t182 471t66 757.5q0 711 -161.5 974t-391.5 263q-109 0 -221.5 -57.5t-187.5 -151.5v-1401q0 -58 34 -78t113 -20h160v-90h-926v90h160q79 0 113 20t34 78v2196z" />
    <glyph glyph-name="quoteleft" unicode="&#x2018;" horiz-adv-x="926" 
d="M635 2925l65 -62q-91 -84 -178.5 -231t-87.5 -248q0 -42 17.5 -68t51.5 -45t62 -35q119 -71 119 -208q0 -93 -64 -145t-157 -52q-108 0 -173 91t-65 220q0 381 410 783z" />
    <glyph glyph-name="quoteright" unicode="&#x2019;" horiz-adv-x="926" 
d="M291 1831l-66 61q90 87 178.5 234t88.5 246q0 34 -11 56.5t-29 37t-39.5 25.5t-52.5 28q-118 71 -118 209q0 92 63 144.5t158 52.5q109 0 173 -91t64 -221q0 -382 -409 -782z" />
    <glyph glyph-name="quotedblleft" unicode="&#x201c;" horiz-adv-x="1630" 
d="M635 2925l65 -62q-91 -84 -178.5 -231t-87.5 -248q0 -42 17.5 -68t51.5 -45t62 -35q119 -71 119 -208q0 -93 -64 -145t-157 -52q-108 0 -173 91t-65 220q0 381 410 783zM1339 2925l66 -62q-93 -89 -179.5 -234.5t-86.5 -244.5q0 -42 17.5 -68t53 -46t60.5 -34
q119 -71 119 -208q0 -92 -64.5 -144.5t-157.5 -52.5q-109 0 -173 91t-64 220q0 382 409 783z" />
    <glyph glyph-name="quotedblright" unicode="&#x201d;" horiz-adv-x="1630" 
d="M291 1831l-66 61q90 87 178.5 234t88.5 246q0 34 -11 56.5t-29 37t-39.5 25.5t-52.5 28q-118 71 -118 209q0 92 63 144.5t158 52.5q109 0 173 -91t64 -221q0 -382 -409 -782zM995 1831l-65 61q94 92 180 236.5t86 243.5q0 34 -11 56.5t-29 37t-46.5 29.5t-44.5 24
q-119 71 -119 209q0 92 63.5 144.5t157.5 52.5q110 0 174 -91t64 -221q0 -382 -410 -782z" />
    <glyph glyph-name="bullet" unicode="&#x2022;" horiz-adv-x="2458" 
d="M696 1434q0 134 66.5 257.5t188 199t278.5 75.5q158 0 278.5 -75.5t187 -199t66.5 -257.5t-66.5 -258t-187 -199.5t-278.5 -75.5q-157 0 -278.5 75.5t-188 199.5t-66.5 258z" />
    <glyph glyph-name="emdash" unicode="&#x2013;" horiz-adv-x="2621" 
d="M246 1352v164h2130v-164h-2130z" />
    <glyph glyph-name="endash" unicode="&#x2014;" horiz-adv-x="3359" 
d="M3113 1171v-139h-2867v139h2867z" />
    <glyph glyph-name="trademark" unicode="&#x2122;" horiz-adv-x="3482" 
d="M246 2867h1147v-356h-95v61q0 49 -32 90q-48 54 -131 84.5t-140 30.5q-53 0 -53 -61v-922q0 -65 98 -65h103v-91h-647v91h106q5 0 19 2t22 2q53 0 53 61v922q0 61 -53 61q-55 0 -151 -37q-69 -26 -115 -78q-33 -41 -33 -90v-61h-98v356zM2023 2867l381 -868l385 868h447
v-90h-103q-5 0 -18 -2t-23 -2q-53 0 -53 -61v-918q0 -61 53 -61q10 0 23 -2t18 -2h103v-91h-643v91h102q94 0 94 65v860l-446 -1016h-49l-451 1016v-569q0 -156 21.5 -256t101.5 -100h53v-91h-471v91h74q80 0 101.5 100t21.5 256v627q0 65 -98 65h-95v90h471z" />
    <glyph glyph-name="afii10106" unicode="&#x161;" horiz-adv-x="3047" 
d="M492 1892h1638v-90h-160q-79 0 -113 -19.5t-34 -78.5v-586q157 33 344 33q282 0 449 -87.5t233.5 -218t66.5 -276.5q0 -187 -99.5 -316.5t-246.5 -191t-284 -61.5h-1082v90h160q79 0 113 20t34 78v1516q0 98 -94 98h-106q-95 0 -148.5 -13t-92.5 -61.5t-65.5 -146.5
t-50.5 -274q-46 -361 -90.5 -596.5t-110.5 -406.5t-167 -260t-250 -89q-129 0 -208 66t-79 176q0 102 56.5 151t127.5 49q69 0 121 -45t52 -131v-12q0 -98 69 -98q154 0 275 585q32 150 79.5 472.5t47.5 433.5q0 126 -57 163t-177 37h-151v90zM1823 1028v-876
q131 -62 245 -62q150 0 260.5 57t171 168t60.5 267q0 264 -147 369.5t-353 105.5q-90 0 -237 -29z" />
    <glyph glyph-name="quilsinglright" unicode="&#x203a;" horiz-adv-x="1802" 
d="M1049 946l-803 881l61 65q223 -196 419.5 -355.5t397 -302t432.5 -288.5q-347 -218 -627 -431.5t-622 -514.5l-61 66z" />
    <glyph glyph-name="afii10107" unicode="&#x153;" horiz-adv-x="3138" 
d="M1602 1012h-852v-824q0 -58 34 -78t113 -20h115v-90h-881v90h160q79 0 113 20t34 78v1516q0 59 -34 78.5t-113 19.5h-160v90h881v-90h-115q-79 0 -113 -19.5t-34 -78.5v-602h852v602q0 59 -34.5 78.5t-113.5 19.5h-119v90h885v-90h-160q-79 0 -113 -19.5t-34 -78.5v-586
q157 33 344 33q409 0 579 -173t170 -409q0 -187 -99.5 -316.5t-246.5 -191t-284 -61.5h-1041v90h119q79 0 113.5 20t34.5 78v824zM1913 1028v-876q131 -62 246 -62q227 0 359 129t132 363q0 264 -147 369.5t-353 105.5q-90 0 -237 -29z" />
    <glyph glyph-name="afii10109" horiz-adv-x="2187" 
d="M131 1892h926v-90h-160q-79 0 -113 -19.5t-34 -78.5v-643h159q129 0 217 87.5t189 317.5q105 236 214.5 353.5t276.5 117.5q113 0 177.5 -55t64.5 -141q0 -78 -41.5 -129t-110.5 -51q-140 0 -172 143q-12 44 -23 67t-46 23q-80 0 -156 -238q-51 -162 -88 -249.5
t-126 -175.5t-232 -115v-17q284 -29 439.5 -215t252.5 -436q47 -125 77 -179t91 -54q94 0 94 176h90q0 -136 -65.5 -236t-208.5 -100q-149 0 -262 107t-174 225t-195 409q-66 139 -137.5 207t-214.5 68h-90v-783q0 -58 34 -78t113 -20h160v-90h-926v90h160q79 0 113 20
t34 78v1516q0 59 -34 78.5t-113 19.5h-160v90z" />
    <glyph glyph-name="afii10108" horiz-adv-x="2294" 
d="M438 2384h-397v115h397v364q0 53 -59 69.5t-199 16.5h-49v90q316 41 619 156v-696h770v-115h-770v-655q307 208 573 208q159 0 288 -70t207 -228.5t78 -409.5v-1041q0 -57 34.5 -77.5t113.5 -20.5h160v-90h-926v90h160q79 0 113 20t34 78v1078q0 264 -110.5 398
t-307.5 134q-105 0 -220 -58.5t-197 -150.5v-1401q0 -58 34 -78t113 -20h160v-90h-926v90h160q79 0 113 20t34 78v2196z" />
    <glyph glyph-name="afii10193" unicode="&#x178;" horiz-adv-x="2347" 
d="M131 1892h889v-90h-123q-79 0 -113 -19.5t-34 -78.5v-1516q0 -58 34 -78t113 -20h553q79 0 113 20t34 78v1516q0 59 -34 78.5t-113 19.5h-123v90h889v-90h-160q-79 0 -113 -19.5t-34 -78.5v-1516q0 -58 34 -78t113 -20h160v-90h-991l94 -532q0 -168 -152 -168
q-143 0 -143 168l98 532h-991v90h160q79 0 113 20t34 78v1516q0 59 -34 78.5t-113 19.5h-160v90z" />
    <glyph glyph-name="afii10062" unicode="&#xa1;" horiz-adv-x="3183" 
d="M229 2867h1082v-114h-213q-82 0 -82 -82q0 -34 12 -54l823 -1589q227 446 359 731.5t202 467t90.5 271t20.5 148.5q0 107 -119 107h-209v114h889v-114h-131q-78 -45 -149.5 -136.5t-155 -250.5t-266.5 -543t-293 -611q-221 -453 -316 -634t-209 -331.5t-252.5 -227
t-328.5 -76.5q-133 0 -237 50.5t-161 136t-57 185.5q0 109 70.5 175.5t163.5 66.5q95 0 158 -58t63 -155q0 -51 -12.5 -71t-12.5 -89q0 -37 38.5 -71.5t101.5 -34.5q129 0 270 133t270 407l-1011 1926q-107 209 -312 209h-86v114zM1753 2974q-234 0 -395.5 80.5
t-239.5 201.5t-78 242q0 114 59 167.5t134 53.5q81 0 132.5 -59.5t51.5 -141.5q0 -85 -57 -163q-29 -36 -29 -86q0 -60 101.5 -124.5t320.5 -64.5q215 0 316.5 64.5t101.5 124.5q0 44 -37 98q-49 69 -49 151q0 80 51.5 140.5t132.5 60.5q75 0 134 -53.5t59 -167.5
q0 -121 -78 -242t-238 -201.5t-393 -80.5z" />
    <glyph glyph-name="afii10110" unicode="&#xa2;" horiz-adv-x="2163" 
d="M57 1892h844v-90h-139q-107 0 -107 -78q0 -32 17 -69l553 -1315l172 475q241 668 241 860q0 127 -127 127h-110v90h704v-90h-65q-87 0 -148 -89t-120.5 -246.5t-157.5 -422.5l-545 -1376q-96 -240 -239.5 -413t-387.5 -173q-135 0 -233 77t-98 194q0 82 49 137t127 55
q175 0 192 -188q11 -127 99 -127q87 0 195 116.5t198 354.5l102 266l-713 1688q-55 147 -221 147h-82v90zM1176 2191q-185 0 -323.5 70.5t-211 179.5t-72.5 217q0 99 58 154t143 55q84 0 122 -56.5t38 -123.5q0 -30 -25 -78q-12 -26 -35.5 -63.5t-31 -54t-7.5 -42.5
q0 -64 99.5 -113.5t245.5 -49.5q159 0 253.5 55.5t94.5 107.5q0 53 -37 99q-62 77 -62 139q0 84 45 132t115 48q86 0 143.5 -54.5t57.5 -154.5q0 -108 -73.5 -217t-211.5 -179.5t-325 -70.5z" />
    <glyph glyph-name="afii10057" unicode="&#xa3;" horiz-adv-x="1761" 
d="M393 2867h1155v-114h-233q-156 0 -156 -185v-2130q0 -457 -143 -763.5t-371 -449.5t-481 -143q-234 0 -363 109.5t-129 251.5q0 84 50 154.5t155 70.5q92 0 160.5 -51.5t68.5 -161.5q0 -16 -2 -44t-2 -50q0 -164 168 -164q117 0 233 83.5t197.5 307.5t81.5 609v2371
q0 185 -155 185h-234v114z" />
    <glyph glyph-name="currency" unicode="&#xa4;" horiz-adv-x="3121" 
d="M401 160l-114 110l409 414q-282 326 -282 750q0 186 66.5 381t215.5 368l-409 410l114 110l410 -405q170 148 366.5 215t383.5 67q186 0 382.5 -67t366.5 -215l410 405l114 -110l-409 -410q148 -170 215 -366.5t67 -382.5q0 -187 -67 -383.5t-215 -366.5l409 -414
l-114 -110l-410 409q-173 -149 -368 -215.5t-381 -66.5q-424 0 -750 282zM578 1434q0 -285 140.5 -511t367.5 -349t475 -123q285 0 511 140.5t349 367.5t123 475q0 246 -123.5 473t-348.5 368.5t-511 141.5t-511 -141.5t-348.5 -368.5t-123.5 -473z" />
    <glyph glyph-name="afii10050" unicode="&#xa5;" horiz-adv-x="2163" 
d="M274 2867h861q147 0 361 43.5t375 132.5t161 217v91h131v-598h-967q-156 0 -156 -185v-2269q0 -184 156 -184h234v-115h-1156v115h234q156 0 156 184v2269q0 185 -156 185h-234v114z" />
    <glyph glyph-name="brokenbar" unicode="&#xa6;" horiz-adv-x="926" 
d="M246 1720q0 88 61.5 152.5t155.5 64.5q85 0 151 -60t66 -157q0 -94 -64.5 -155.5t-152.5 -61.5q-84 0 -150.5 62t-66.5 155zM246 160q0 87 62 152t155 65q85 0 151 -60t66 -157q0 -94 -64.5 -155.5t-152.5 -61.5q-93 0 -155 66.5t-62 150.5z" />
    <glyph glyph-name="section" unicode="&#xa7;" horiz-adv-x="2208" 
d="M1016 2044l602 -451q360 -272 360 -618q0 -374 -442 -717q193 -179 193 -438q0 -128 -66.5 -277.5t-206 -255.5t-342.5 -106q-184 0 -326.5 65.5t-219 171t-76.5 217.5q0 106 58 162t138 56q90 0 149.5 -51t59.5 -126q0 -24 -4 -66t-4 -85q0 -230 225 -230q164 0 258 118
t94 276q0 216 -196 372l-701 545q-340 268 -340 627q0 105 53 233.5t148.5 249t216.5 209.5q-135 181 -135 393q0 146 83.5 287.5t242.5 230.5t374 89q152 0 278 -48t198.5 -128.5t72.5 -172.5q0 -106 -60 -159.5t-136 -53.5q-188 0 -201 279q-8 168 -229 168
q-156 0 -258.5 -97.5t-102.5 -209.5q0 -148 77.5 -271.5t164.5 -187.5zM1430 1319l-709 536q-124 -83 -197 -215t-73 -280q0 -142 81 -254.5t254 -249.5l680 -524q127 87 195 210t68 232q0 311 -299 545z" />
    <glyph glyph-name="afii10023" unicode="&#xa8;" horiz-adv-x="2781" 
d="M2474 0h-2200v115h234q156 0 156 184v2269q0 185 -156 185h-234v114h2180l49 -581h-131l-17 122q-18 146 -251 245.5t-765 99.5h-143q-156 0 -156 -185v-1003h185q319 0 478 31.5t201 80t42 121.5v103h131v-787h-131v103q0 71 -35.5 118t-193.5 81t-492 34h-185v-1151
q0 -184 156 -184h57q612 0 891 120t314 297l20 103h131zM713 3351q0 102 82 188t196 86q118 0 196.5 -85t78.5 -189q0 -105 -78.5 -190t-196.5 -85q-114 0 -196 86t-82 189zM1642 3351q0 117 86 195.5t189 78.5q104 0 189 -78.5t85 -195.5q0 -118 -85 -196.5t-189 -78.5
q-103 0 -189 78.5t-86 196.5z" />
    <glyph glyph-name="copyright" unicode="&#xa9;" horiz-adv-x="3277" 
d="M147 1434q0 275 106 542.5t305 483t475.5 340.5t604.5 125q431 0 774 -215t530 -559t187 -717q0 -277 -105 -543t-304.5 -482t-475.5 -341t-606 -125q-373 0 -717 187t-559 530t-215 774zM311 1434q0 -248 93.5 -485.5t270 -428.5t423 -302.5t540.5 -111.5q295 0 542 112
t423 302t269.5 428t93.5 486t-93.5 485t-270.5 429t-423 302.5t-541 110.5q-247 0 -484.5 -93.5t-427.5 -268.5t-302.5 -423.5t-112.5 -541.5zM2134 2294h90l33 -455h-90l-8 107q-53 145 -199.5 217.5t-292.5 72.5q-153 0 -284 -96.5t-210 -280.5t-79 -434
q0 -370 175.5 -570t446.5 -200q368 0 541 406l90 -29q-193 -491 -709 -491q-252 0 -446.5 115.5t-300 319t-105.5 454.5q0 247 108 452t311 325t470 120q238 0 459 -103v70z" />
    <glyph glyph-name="afii10053" unicode="&#xaa;" horiz-adv-x="3027" 
d="M1335 1434h-602q0 -476 160.5 -777t408 -432t517.5 -131q244 0 435.5 115t313 277t197.5 329l102 -53q-206 -450 -512 -634.5t-667 -184.5q-414 0 -733.5 191.5t-493.5 528.5t-174 750q0 262 86.5 529.5t264.5 489.5t460.5 357.5t654.5 135.5q428 0 782 -177l-4 119h131
l58 -758h-131l-9 82q-14 148 -127 292.5t-308.5 235.5t-440.5 91q-277 0 -494 -176t-338.5 -465.5t-130.5 -620.5h594q373 0 811 86v-286q-438 86 -811 86z" />
    <glyph glyph-name="guillemotleft" unicode="&#xab;" 
d="M754 946l802 -880l-61 -66q-232 202 -426 359.5t-392.5 299t-430.5 287.5q345 218 616 424.5t633 521.5l61 -65zM1421 946l488 -618l-62 -58q-230 222 -385.5 356.5t-404.5 319.5q153 114 280 216.5t247 212t263 247.5l62 -57z" />
    <glyph glyph-name="logicalnot" unicode="&#xac;" horiz-adv-x="2621" 
d="M246 1556v164h2130v-778h-164v614h-1966z" />
    <glyph glyph-name="registered" unicode="&#xae;" horiz-adv-x="3277" 
d="M147 1434q0 275 106 542.5t305 483t475.5 340.5t604.5 125q431 0 774 -215t530 -559t187 -717q0 -277 -105 -543t-304.5 -482t-475.5 -341t-606 -125q-373 0 -717 187t-559 530t-215 774zM311 1434q0 -248 93.5 -485.5t270 -428.5t423 -302.5t540.5 -111.5q295 0 542 112
t423 302t269.5 428t93.5 486t-93.5 485t-270.5 429t-423 302.5t-541 110.5q-247 0 -484.5 -93.5t-427.5 -268.5t-302.5 -423.5t-112.5 -541.5zM901 2294h680q327 0 536.5 -85t209.5 -354q0 -209 -175 -331.5t-432 -122.5v-17q167 -46 279.5 -143.5t170.5 -198.5t124 -256
q32 -81 59 -108t76 -27v-90q-46 -20 -107 -20q-244 0 -430 438q-62 142 -100.5 210t-135 131.5t-255.5 68.5v-615q0 -110 94 -110h139v-91h-733v91h139q95 0 95 110v1319q0 111 -95 111h-139v90zM1401 2175v-696q85 -17 201 -17q253 0 341.5 121t88.5 272q0 127 -90.5 238
t-335.5 111q-105 0 -205 -29z" />
    <glyph glyph-name="afii10056" unicode="&#xaf;" horiz-adv-x="1647" 
d="M1430 0h-1156v115h234q156 0 156 184v2269q0 185 -156 185h-234v114h1156v-114h-234q-156 0 -156 -185v-2269q0 -184 156 -184h234v-115zM156 3351q0 117 85 195.5t189 78.5q103 0 189 -78.5t86 -195.5q0 -105 -78.5 -190t-196.5 -85q-117 0 -195.5 85t-78.5 190z
M999 3351q0 117 86 195.5t189 78.5q104 0 189 -78.5t85 -195.5q0 -106 -78 -190.5t-196 -84.5t-196.5 85t-78.5 190z" />
    <glyph glyph-name="degree" unicode="&#xb0;" horiz-adv-x="1368" 
d="M246 2486q0 130 63.5 231t164.5 154.5t210 53.5q129 0 229 -62t154.5 -164.5t54.5 -212.5q0 -109 -53.5 -210t-154 -164.5t-230.5 -63.5q-194 0 -316 132.5t-122 305.5zM393 2486q0 -124 91 -207.5t200 -83.5q126 0 208.5 91.5t82.5 199.5q0 126 -90.5 208.5t-200.5 82.5
q-108 0 -199.5 -82.5t-91.5 -208.5z" />
    <glyph glyph-name="plusminus" unicode="&#xb1;" horiz-adv-x="2621" 
d="M246 1556v164h983v901h164v-901h983v-164h-983v-860h-164v860h-983zM246 205v164h2130v-164h-2130z" />
    <glyph glyph-name="afii10055" unicode="&#xb2;" horiz-adv-x="1642" 
d="M274 2867h1156v-114h-234q-156 0 -156 -185v-2269q0 -184 156 -184h234v-115h-1156v115h234q156 0 156 184v2269q0 185 -156 185h-234v114z" />
    <glyph glyph-name="afii10103" unicode="&#xb3;" horiz-adv-x="1188" 
d="M1057 0h-926v90h160q79 0 113 20t34 78v1454q0 53 -58.5 70t-199.5 17h-49v90q242 11 619 155v-1786q0 -58 34 -78t113 -20h160v-90zM336 2503q0 77 58 140.5t147 63.5q79 0 144 -57.5t65 -146.5q0 -88 -66 -148.5t-143 -60.5q-87 0 -146 65.5t-59 143.5z" />
    <glyph glyph-name="afii10098" unicode="&#xb4;" horiz-adv-x="1581" 
d="M131 1892h623q378 0 527 115.5t149 257.5v37h102v-500h-688q-94 0 -94 -98v-1516q0 -58 34 -78t113 -20h201v-90h-967v90h160q79 0 113 20t34 78v1516q0 59 -34 78.5t-113 19.5h-160v90z" />
    <glyph glyph-name="mu" unicode="&#xb5;" horiz-adv-x="2425" 
d="M1651 1892h311v-1618q0 -159 90 -159q93 0 152 159l90 -36q-37 -115 -123.5 -199t-228.5 -84q-132 0 -197.5 107t-65.5 282h-24q-60 -151 -185 -270t-323 -119q-148 0 -249.5 63t-154.5 144t-79 162h-29q9 -356 78 -668q45 -201 45 -373q0 -66 -46.5 -133.5t-170.5 -67.5
q-78 0 -145.5 45.5t-67.5 155.5q0 51 69 496q78 497 78 1098v1015h311v-1335q0 -178 103.5 -271t261.5 -93q141 0 256.5 77.5t179.5 198t64 244.5v1179z" />
    <glyph glyph-name="paragraph" unicode="&#xb6;" horiz-adv-x="2392" 
d="M1188 -877h-164v2311q-171 0 -362 51t-340.5 206.5t-149.5 438.5q0 295 197.5 516t703.5 221h1147v-114h-459v-3630h-164v3630h-409v-3630z" />
    <glyph glyph-name="periodcentered" unicode="&#xb7;" horiz-adv-x="926" 
d="M246 1102q0 88 61.5 152.5t155.5 64.5q97 0 157 -66t60 -151q0 -94 -64.5 -155.5t-152.5 -61.5q-93 0 -155 66.5t-62 150.5z" />
    <glyph glyph-name="afii10071" unicode="&#xb8;" horiz-adv-x="1872" 
d="M1749 1081h-1241q-4 -53 -4 -155q0 -305 86 -489.5t218.5 -259.5t281.5 -75q370 0 569 381l74 -41q-84 -158 -183 -266t-230 -164.5t-308 -56.5q-174 0 -330.5 62t-277.5 185.5t-189 302.5t-68 404q0 285 103 521t299 371.5t463 135.5q254 0 420 -129.5t241.5 -326
t75.5 -400.5zM508 1171h905v58q0 326 -117.5 472t-291.5 146q-99 0 -202 -52.5t-187.5 -204.5t-106.5 -419zM434 2503q0 69 53 136.5t152 67.5t152 -66.5t53 -137.5q0 -70 -53 -137.5t-152 -67.5t-152 68.5t-53 136.5zM1090 2503q0 84 55 144t149 60q95 0 150 -60t55 -144
q0 -85 -56 -145t-149 -60q-92 0 -148 60t-56 145z" />
    <glyph glyph-name="afii61352" unicode="&#xb9;" horiz-adv-x="4334" 
d="M311 2867h668l1532 -2191v1679q0 570 500 570q153 0 244 -85.5t91 -205.5q0 -100 -57 -152.5t-131 -52.5q-201 0 -201 250q0 102 -90 102q-82 0 -149.5 -97t-67.5 -329v-2412h-115l-1552 2220v-1606q0 -359 -146 -486.5t-321 -127.5q-186 0 -293.5 107.5t-107.5 240.5
q0 68 49.5 120t138.5 52q92 0 144.5 -59t52.5 -166v-50q6 -77 73 -94h41q230 39 230 553v1704l-119 168q-164 234 -414 234v114zM2900 1266q0 146 64 288.5t197.5 236t332.5 93.5q177 0 312 -82t208.5 -222t73.5 -314q0 -171 -73.5 -312.5t-209 -224t-311.5 -82.5
q-150 0 -263.5 55.5t-187 148.5t-108.5 202.5t-35 212.5zM3195 1266q0 -286 86.5 -407.5t212.5 -121.5q149 0 224 143.5t75 385.5q0 218 -69 373t-230 155q-136 0 -217.5 -132t-81.5 -396zM3985 0h-983v246h983v-246z" />
    <glyph glyph-name="afii10101" unicode="&#xba;" horiz-adv-x="1950" 
d="M668 971h-164q4 -372 109 -568.5t238 -254.5t263 -58q106 0 209 24.5t219.5 123.5t202.5 299l82 -41q-238 -541 -729 -541q-298 0 -513 131.5t-326.5 365.5t-111.5 535q0 143 57.5 353t275.5 403.5t646 193.5q307 0 529 -118l-4 73h102l16 -495h-102v49q0 109 -72 201
t-197 146t-272 54q-248 0 -387 -125t-187 -300.5t-48 -360.5q344 0 530 9t367 44v-213q-206 46 -356.5 58t-376.5 12z" />
    <glyph glyph-name="guillemotright" unicode="&#xbb;" 
d="M1401 946l-803 881l61 65q356 -311 624.5 -516t625.5 -430q-346 -217 -627 -431t-623 -515l-61 66zM733 946l-487 619l61 57q154 -148 269 -252.5t242 -207t280 -216.5q-153 -114 -280 -216.5t-242 -207t-269 -252.5l-61 58z" />
    <glyph glyph-name="afii10105" unicode="&#xbc;" horiz-adv-x="1159" 
d="M438 -180v1822q0 53 -58.5 70t-199.5 17h-49v90q242 11 619 155v-1970q0 -173 -70.5 -389t-232 -374.5t-414.5 -158.5q-146 0 -229 89t-83 194q0 75 50.5 127.5t117.5 52.5q79 0 132 -49t53 -151q0 -13 -4 -30t-4 -28q0 -98 81 -98q291 0 291 631zM336 2503
q0 77 58.5 140.5t150.5 63.5q89 0 147 -63t58 -141q0 -80 -59 -144.5t-146 -64.5q-92 0 -150.5 66t-58.5 143z" />
    <glyph glyph-name="afii10054" unicode="&#xbd;" horiz-adv-x="2413" 
d="M1909 2867h131l24 -725h-131l-4 86q-6 150 -112.5 284.5t-286.5 216t-387 81.5q-237 0 -372.5 -120t-135.5 -294q0 -237 242 -381l847 -508q212 -125 344 -285.5t132 -422.5q0 -198 -88 -393.5t-295.5 -329t-538.5 -133.5q-462 0 -827 192l8 -135h-131l-54 741h132l4 -53
q12 -145 137 -293t320.5 -243t402.5 -95q190 0 332 84t216 221t74 293q0 143 -71.5 234t-210.5 176l-733 442q-216 131 -316 202.5t-173 185t-73 272.5q0 192 85 365t278.5 283t497.5 110q354 0 737 -177z" />
    <glyph glyph-name="afii10102" unicode="&#xbe;" horiz-adv-x="1597" 
d="M1237 1892h102l17 -512h-103v66q0 77 -71 172t-197 162t-276 67q-149 0 -226 -88t-77 -211q0 -88 58.5 -152t130 -102t286.5 -139q245 -114 407 -255.5t162 -383.5q0 -140 -74 -269t-221.5 -210.5t-351.5 -81.5q-255 0 -533 135l4 -90h-102l-25 537h103q4 -123 84.5 -237
t211.5 -184.5t273 -70.5q176 0 270.5 111t94.5 250q0 89 -40 157.5t-104.5 117.5t-140.5 88t-190 95q-285 146 -409 264t-124 306q0 213 156 358t438 145q254 0 467 -118v73z" />
    <glyph glyph-name="afii10104" unicode="&#xbf;" horiz-adv-x="1192" 
d="M1061 0h-930v90h160q97 0 122 25.5t25 72.5v1454q0 45 -42 66t-216 21h-49v90q253 15 623 155v-1786q0 -61 30.5 -79.5t112.5 -18.5h164v-90zM37 2490q0 93 63 161.5t166 68.5q67 0 120 -33.5t81.5 -87t28.5 -109.5q0 -84 -67 -156.5t-163 -72.5q-86 0 -157.5 65
t-71.5 164zM618 2490q0 104 68 167t162 63q102 0 165.5 -70t63.5 -160q0 -97 -72.5 -163t-156.5 -66q-87 0 -158.5 65t-71.5 164z" />
    <glyph glyph-name="afii10017" unicode="&#xc0;" horiz-adv-x="2929" 
d="M1884 1118h-930l-94 -254q-126 -345 -149 -415.5t-23 -145.5q0 -78 33 -133t86 -55h164v-115h-832v115h78q103 0 238 209t352 794l668 1807h131l921 -2560q25 -72 54 -123t84 -89t145 -38h90v-115h-1049v115h164q81 0 122.5 24t41.5 94q0 59 -90 312zM995 1233h852
l-426 1180z" />
    <glyph glyph-name="afii10017" unicode="&#x410;" horiz-adv-x="2929" 
d="M1884 1118h-930l-94 -254q-126 -345 -149 -415.5t-23 -145.5q0 -78 33 -133t86 -55h164v-115h-832v115h78q103 0 238 209t352 794l668 1807h131l921 -2560q25 -72 54 -123t84 -89t145 -38h90v-115h-1049v115h164q81 0 122.5 24t41.5 94q0 59 -90 312zM995 1233h852
l-426 1180z" />
    <glyph glyph-name="afii10018" unicode="&#xc1;" horiz-adv-x="2871" 
d="M279 2867h2138l49 -581h-131l-17 122q-18 146 -251 245.5t-764 99.5h-62q-87 0 -142 -35.5t-55 -153.5v-885q261 70 525 70q335 0 581 -109t375 -298t129 -420q0 -217 -89 -423t-346.5 -352.5t-719.5 -146.5h-1220v115h233q156 0 156 184v2269q0 185 -156 185h-233v114z
M1044 1565v-1327q179 -123 451 -123q240 0 401 111t236.5 296t75.5 408q0 371 -209.5 533.5t-528.5 162.5q-217 0 -426 -61z" />
    <glyph glyph-name="afii10018" unicode="&#x411;" horiz-adv-x="2871" 
d="M279 2867h2138l49 -581h-131l-17 122q-18 146 -251 245.5t-764 99.5h-62q-87 0 -142 -35.5t-55 -153.5v-885q261 70 525 70q335 0 581 -109t375 -298t129 -420q0 -217 -89 -423t-346.5 -352.5t-719.5 -146.5h-1220v115h233q156 0 156 184v2269q0 185 -156 185h-233v114z
M1044 1565v-1327q179 -123 451 -123q240 0 401 111t236.5 296t75.5 408q0 371 -209.5 533.5t-528.5 162.5q-217 0 -426 -61z" />
    <glyph glyph-name="afii10019" unicode="&#xc2;" horiz-adv-x="2908" 
d="M274 0v115h234q156 0 156 184v2273q0 181 -156 181h-234v114h1315q979 0 979 -680q0 -312 -209 -445.5t-446 -160.5v-16q194 -25 370.5 -112.5t292 -250t115.5 -399.5q0 -210 -89 -390t-310 -296.5t-592 -116.5h-1426zM1040 1630h476q218 0 360 76.5t206 204.5t64 280
q0 225 -137 393.5t-518 168.5q-252 0 -451 -91v-1032zM1040 1507v-1269q109 -73 207.5 -98t243.5 -25q390 0 572 197t182 483q0 287 -156 499.5t-582 212.5h-467z" />
    <glyph glyph-name="afii10019" unicode="&#x412;" horiz-adv-x="2908" 
d="M274 0v115h234q156 0 156 184v2273q0 181 -156 181h-234v114h1315q979 0 979 -680q0 -312 -209 -445.5t-446 -160.5v-16q194 -25 370.5 -112.5t292 -250t115.5 -399.5q0 -210 -89 -390t-310 -296.5t-592 -116.5h-1426zM1040 1630h476q218 0 360 76.5t206 204.5t64 280
q0 225 -137 393.5t-518 168.5q-252 0 -451 -91v-1032zM1040 1507v-1269q109 -73 207.5 -98t243.5 -25q390 0 572 197t182 483q0 287 -156 499.5t-582 212.5h-467z" />
    <glyph glyph-name="afii10020" unicode="&#xc3;" horiz-adv-x="2286" 
d="M1511 0h-1237v115h234q156 0 156 155v2343q0 65 -46 102.5t-110 37.5h-234v114h1962l50 -594h-132l-16 135q-15 141 -200.5 243t-634.5 102h-66q-89 0 -143 -35t-54 -154v-2294q0 -155 156 -155h315v-115z" />
    <glyph glyph-name="afii10020" unicode="&#x413;" horiz-adv-x="2286" 
d="M1511 0h-1237v115h234q156 0 156 155v2343q0 65 -46 102.5t-110 37.5h-234v114h1962l50 -594h-132l-16 135q-15 141 -200.5 243t-634.5 102h-66q-89 0 -143 -35t-54 -154v-2294q0 -155 156 -155h315v-115z" />
    <glyph glyph-name="afii10021" unicode="&#xc4;" horiz-adv-x="3023" 
d="M688 2867h2089v-114h-233q-156 0 -156 -185v-2269q0 -184 156 -184h233l33 -746h-131l-13 160q-7 114 -152.5 223.5t-378 178.5t-484.5 69h-639q-267 0 -520.5 -126.5t-274.5 -356.5l-12 -148h-131l53 746q155 19 279.5 127.5t232.5 355.5q187 429 329 1040t142 856
q0 163 -70.5 211t-183.5 48h-168v114zM856 115h999q156 0 156 184v2269q0 185 -151 185h-369q-105 0 -158.5 -58.5t-70.5 -132t-50 -285.5q-114 -710 -245 -1163q-90 -303 -131.5 -414.5t-100.5 -258.5t-59 -195q0 -131 180 -131z" />
    <glyph glyph-name="afii10021" unicode="&#x414;" horiz-adv-x="3023" 
d="M688 2867h2089v-114h-233q-156 0 -156 -185v-2269q0 -184 156 -184h233l33 -746h-131l-13 160q-7 114 -152.5 223.5t-378 178.5t-484.5 69h-639q-267 0 -520.5 -126.5t-274.5 -356.5l-12 -148h-131l53 746q155 19 279.5 127.5t232.5 355.5q187 429 329 1040t142 856
q0 163 -70.5 211t-183.5 48h-168v114zM856 115h999q156 0 156 184v2269q0 185 -151 185h-369q-105 0 -158.5 -58.5t-70.5 -132t-50 -285.5q-114 -710 -245 -1163q-90 -303 -131.5 -414.5t-100.5 -258.5t-59 -195q0 -131 180 -131z" />
    <glyph glyph-name="afii10022" unicode="&#xc5;" horiz-adv-x="2781" 
d="M274 2867h2180l49 -581h-131l-17 122q-18 146 -251 245.5t-765 99.5h-143q-156 0 -156 -185v-1003h185q319 0 478 31.5t201 80t42 121.5v103h131v-787h-131v103q0 71 -35.5 118t-193.5 81t-492 34h-185v-1151q0 -184 156 -184h57q612 0 891 120t314 297l20 103h131
l-135 -635h-2200v115h234q156 0 156 184v2269q0 185 -156 185h-234v114z" />
    <glyph glyph-name="afii10022" unicode="&#x415;" horiz-adv-x="2781" 
d="M274 2867h2180l49 -581h-131l-17 122q-18 146 -251 245.5t-765 99.5h-143q-156 0 -156 -185v-1003h185q319 0 478 31.5t201 80t42 121.5v103h131v-787h-131v103q0 71 -35.5 118t-193.5 81t-492 34h-185v-1151q0 -184 156 -184h57q612 0 891 120t314 297l20 103h131
l-135 -635h-2200v115h234q156 0 156 184v2269q0 185 -156 185h-234v114z" />
    <glyph glyph-name="afii10024" unicode="&#xc6;" horiz-adv-x="4284" 
d="M2720 0h-1155v115h233q156 0 156 184v1196h-82q-121 0 -212.5 -54.5t-157 -144.5t-135.5 -233.5t-114 -235.5q-162 -335 -244.5 -485.5t-217 -274.5t-312.5 -124q-311 0 -340 356h111q10 -180 119 -180q44 0 80 34.5t62.5 90t47.5 114.5t43 121q104 273 214.5 475.5
t312 371t501.5 214.5v21q-219 47 -360.5 239.5t-282.5 575.5q-139 389 -254 389q-41 0 -41 -58q0 -10 2 -30t2 -27q0 -90 -55.5 -145.5t-140.5 -55.5q-83 0 -148 56t-65 161q0 108 75 183.5t216 75.5q155 0 274.5 -91.5t208 -235t201.5 -378.5q134 -273 231 -403
t179.5 -168.5t199.5 -38.5h82v958q0 185 -156 185h-233v114h1155v-114h-234q-155 0 -155 -185v-958h82q116 0 198.5 38.5t181.5 171.5t230 400q168 353 314 529t370 176q141 0 216 -75t75 -184q0 -105 -65.5 -161t-147.5 -56q-86 0 -141.5 56.5t-55.5 144.5q0 7 2 27t2 30
q0 58 -41 58q-73 0 -132 -108t-122 -281q-141 -383 -282 -575.5t-361 -239.5v-21q299 -46 501.5 -214.5t312.5 -371t214 -475.5q29 -81 61 -165t73.5 -139.5t99.5 -55.5q42 0 78 43t41 137h110q-28 -356 -340 -356q-136 0 -247.5 76t-197.5 197.5t-174 297.5t-155 313
q-48 101 -115.5 240t-133 229t-157 144.5t-212.5 54.5h-82v-1196q0 -184 155 -184h234v-115z" />
    <glyph glyph-name="afii10024" unicode="&#x416;" horiz-adv-x="4284" 
d="M2720 0h-1155v115h233q156 0 156 184v1196h-82q-121 0 -212.5 -54.5t-157 -144.5t-135.5 -233.5t-114 -235.5q-162 -335 -244.5 -485.5t-217 -274.5t-312.5 -124q-311 0 -340 356h111q10 -180 119 -180q44 0 80 34.5t62.5 90t47.5 114.5t43 121q104 273 214.5 475.5
t312 371t501.5 214.5v21q-219 47 -360.5 239.5t-282.5 575.5q-139 389 -254 389q-41 0 -41 -58q0 -10 2 -30t2 -27q0 -90 -55.5 -145.5t-140.5 -55.5q-83 0 -148 56t-65 161q0 108 75 183.5t216 75.5q155 0 274.5 -91.5t208 -235t201.5 -378.5q134 -273 231 -403
t179.5 -168.5t199.5 -38.5h82v958q0 185 -156 185h-233v114h1155v-114h-234q-155 0 -155 -185v-958h82q116 0 198.5 38.5t181.5 171.5t230 400q168 353 314 529t370 176q141 0 216 -75t75 -184q0 -105 -65.5 -161t-147.5 -56q-86 0 -141.5 56.5t-55.5 144.5q0 7 2 27t2 30
q0 58 -41 58q-73 0 -132 -108t-122 -281q-141 -383 -282 -575.5t-361 -239.5v-21q299 -46 501.5 -214.5t312.5 -371t214 -475.5q29 -81 61 -165t73.5 -139.5t99.5 -55.5q42 0 78 43t41 137h110q-28 -356 -340 -356q-136 0 -247.5 76t-197.5 197.5t-174 297.5t-155 313
q-48 101 -115.5 240t-133 229t-157 144.5t-212.5 54.5h-82v-1196q0 -184 155 -184h234v-115z" />
    <glyph glyph-name="afii10025" unicode="&#xc7;" horiz-adv-x="2662" 
d="M975 1462v201q131 -25 340 -25q340 0 483.5 176t143.5 443q0 248 -138 400.5t-399 152.5q-239 0 -427.5 -90t-293.5 -225t-111 -259l-4 -77h-131l49 708h131l-8 -131q353 189 799 189q331 0 545.5 -106.5t311.5 -270.5t97 -344q0 -196 -94.5 -334.5t-240.5 -212
t-304 -88.5v-17q306 -22 513.5 -218t207.5 -515q0 -213 -112 -413.5t-365 -331.5t-645 -131q-324 0 -561.5 87t-362.5 226.5t-125 288.5q0 103 63.5 180.5t178.5 77.5q106 0 161.5 -68.5t55.5 -161.5q0 -63 -20.5 -114t-20.5 -86q0 -113 150 -214.5t432 -101.5
q225 0 389 100t250 277.5t86 405.5q0 196 -71 350t-220 244t-369 90q-184 0 -364 -62z" />
    <glyph glyph-name="afii10025" unicode="&#x417;" horiz-adv-x="2662" 
d="M975 1462v201q131 -25 340 -25q340 0 483.5 176t143.5 443q0 248 -138 400.5t-399 152.5q-239 0 -427.5 -90t-293.5 -225t-111 -259l-4 -77h-131l49 708h131l-8 -131q353 189 799 189q331 0 545.5 -106.5t311.5 -270.5t97 -344q0 -196 -94.5 -334.5t-240.5 -212
t-304 -88.5v-17q306 -22 513.5 -218t207.5 -515q0 -213 -112 -413.5t-365 -331.5t-645 -131q-324 0 -561.5 87t-362.5 226.5t-125 288.5q0 103 63.5 180.5t178.5 77.5q106 0 161.5 -68.5t55.5 -161.5q0 -63 -20.5 -114t-20.5 -86q0 -113 150 -214.5t432 -101.5
q225 0 389 100t250 277.5t86 405.5q0 196 -71 350t-220 244t-369 90q-184 0 -364 -62z" />
    <glyph glyph-name="afii10026" unicode="&#xc8;" horiz-adv-x="3473" 
d="M274 2867h1156v-114h-234q-156 0 -156 -185v-2052l1454 2044v57q0 59 -46.5 97.5t-108.5 38.5h-234v114h1155v-114h-233q-156 0 -156 -185v-2269q0 -184 156 -184h233v-115h-1155v115h234q155 0 155 184v2064l-1454 -2052v-61q0 -47 37 -91t119 -44h234v-115h-1156v115
h234q156 0 156 184v2269q0 185 -156 185h-234v114z" />
    <glyph glyph-name="afii10026" unicode="&#x418;" horiz-adv-x="3473" 
d="M274 2867h1156v-114h-234q-156 0 -156 -185v-2052l1454 2044v57q0 59 -46.5 97.5t-108.5 38.5h-234v114h1155v-114h-233q-156 0 -156 -185v-2269q0 -184 156 -184h233v-115h-1155v115h234q155 0 155 184v2064l-1454 -2052v-61q0 -47 37 -91t119 -44h234v-115h-1156v115
h234q156 0 156 184v2269q0 185 -156 185h-234v114z" />
    <glyph glyph-name="afii10027" unicode="&#xc9;" horiz-adv-x="3473" 
d="M274 2867h1156v-114h-234q-156 0 -156 -185v-2052l1454 2044v57q0 59 -46.5 97.5t-108.5 38.5h-234v114h1155v-114h-233q-156 0 -156 -185v-2269q0 -184 156 -184h233v-115h-1155v115h234q155 0 155 184v2064l-1454 -2052v-61q0 -47 37 -91t119 -44h234v-115h-1156v115
h234q156 0 156 184v2269q0 185 -156 185h-234v114zM1769 2974q-206 0 -369.5 71t-253 191.5t-89.5 261.5q0 123 61.5 172t126.5 49q82 0 133.5 -59.5t51.5 -141.5q0 -21 -17 -81q-18 -51 -41 -82q-24 -37 -24 -86q0 -93 136 -141t285 -48q86 0 182.5 19t164 61t67.5 109
q0 44 -37 98q-17 24 -33 72.5t-16 78.5q0 78 54.5 139.5t134.5 61.5q72 0 130 -54t58 -167q0 -123 -77.5 -243.5t-237.5 -200.5t-390 -80z" />
    <glyph glyph-name="afii10027" unicode="&#x419;" horiz-adv-x="3473" 
d="M274 2867h1156v-114h-234q-156 0 -156 -185v-2052l1454 2044v57q0 59 -46.5 97.5t-108.5 38.5h-234v114h1155v-114h-233q-156 0 -156 -185v-2269q0 -184 156 -184h233v-115h-1155v115h234q155 0 155 184v2064l-1454 -2052v-61q0 -47 37 -91t119 -44h234v-115h-1156v115
h234q156 0 156 184v2269q0 185 -156 185h-234v114zM1769 2974q-206 0 -369.5 71t-253 191.5t-89.5 261.5q0 123 61.5 172t126.5 49q82 0 133.5 -59.5t51.5 -141.5q0 -21 -17 -81q-18 -51 -41 -82q-24 -37 -24 -86q0 -93 136 -141t285 -48q86 0 182.5 19t164 61t67.5 109
q0 44 -37 98q-17 24 -33 72.5t-16 78.5q0 78 54.5 139.5t134.5 61.5q72 0 130 -54t58 -167q0 -123 -77.5 -243.5t-237.5 -200.5t-390 -80z" />
    <glyph glyph-name="afii10028" unicode="&#xca;" horiz-adv-x="3035" 
d="M1040 1610h164q120 0 204.5 38.5t187.5 173t239 406.5q118 235 207 374.5t212.5 231t285.5 91.5q142 0 216 -75t74 -184q0 -106 -65 -161.5t-148 -55.5q-85 0 -140.5 56.5t-55.5 144.5q0 7 2 27t2 30q0 58 -41 58q-78 0 -136.5 -109t-121.5 -280q-87 -241 -183 -409
t-213 -269.5t-264 -141.5v-20q271 -32 472.5 -182t336.5 -370t244 -505q86 -218 131 -289t98 -71q51 0 83.5 55.5t35.5 124.5h111q-27 -356 -340 -356q-177 0 -323.5 131.5t-256.5 317.5t-246 469t-190 372q-160 262 -418 262h-164v-1196q0 -184 156 -184h234v-115h-1156
v115h234q156 0 156 184v2269q0 185 -156 185h-234v114h1156v-114h-234q-156 0 -156 -185v-958z" />
    <glyph glyph-name="afii10028" unicode="&#x41a;" horiz-adv-x="3035" 
d="M1040 1610h164q120 0 204.5 38.5t187.5 173t239 406.5q118 235 207 374.5t212.5 231t285.5 91.5q142 0 216 -75t74 -184q0 -106 -65 -161.5t-148 -55.5q-85 0 -140.5 56.5t-55.5 144.5q0 7 2 27t2 30q0 58 -41 58q-78 0 -136.5 -109t-121.5 -280q-87 -241 -183 -409
t-213 -269.5t-264 -141.5v-20q271 -32 472.5 -182t336.5 -370t244 -505q86 -218 131 -289t98 -71q51 0 83.5 55.5t35.5 124.5h111q-27 -356 -340 -356q-177 0 -323.5 131.5t-256.5 317.5t-246 469t-190 372q-160 262 -418 262h-164v-1196q0 -184 156 -184h234v-115h-1156
v115h234q156 0 156 184v2269q0 185 -156 185h-234v114h1156v-114h-234q-156 0 -156 -185v-958z" />
    <glyph glyph-name="afii10029" unicode="&#xcb;" horiz-adv-x="3138" 
d="M750 2867h2175v-114h-234q-156 0 -156 -185v-2269q0 -184 156 -184h234v-115h-1156v115h234q156 0 156 184v2269q0 185 -156 185h-234q-170 0 -252 -40t-108 -107.5t-41 -188.5q-86 -730 -177.5 -1201t-199.5 -752.5t-237 -401t-299 -119.5q-172 0 -285 92t-113 239
q0 111 60.5 182.5t165.5 71.5q108 0 164.5 -61.5t56.5 -147.5q0 -19 -8 -61q-9 -36 -9 -53q0 -37 21 -61.5t53 -24.5q180 0 365 569q61 190 133 553t123 725.5t51 527.5q0 123 -55 191t-158 68h-270v114z" />
    <glyph glyph-name="afii10029" unicode="&#x41b;" horiz-adv-x="3138" 
d="M750 2867h2175v-114h-234q-156 0 -156 -185v-2269q0 -184 156 -184h234v-115h-1156v115h234q156 0 156 184v2269q0 185 -156 185h-234q-170 0 -252 -40t-108 -107.5t-41 -188.5q-86 -730 -177.5 -1201t-199.5 -752.5t-237 -401t-299 -119.5q-172 0 -285 92t-113 239
q0 111 60.5 182.5t165.5 71.5q108 0 164.5 -61.5t56.5 -147.5q0 -19 -8 -61q-9 -36 -9 -53q0 -37 21 -61.5t53 -24.5q180 0 365 569q61 190 133 553t123 725.5t51 527.5q0 123 -55 191t-158 68h-270v114z" />
    <glyph glyph-name="afii10030" unicode="&#xcc;" horiz-adv-x="4010" 
d="M274 2867h828l971 -2306l979 2306h745v-114h-233q-156 0 -156 -185v-2269q0 -184 156 -184h233v-115h-1155v115h233q156 0 156 184v2204l-1053 -2503h-106l-1094 2585v-1364v-86q0 -429 56 -724.5t247 -295.5h78v-115h-885v115h78q128 0 191.5 166t79.5 395t16 545v1327
q0 135 -44 170t-112 35h-209v114z" />
    <glyph glyph-name="afii10030" unicode="&#x41c;" horiz-adv-x="4010" 
d="M274 2867h828l971 -2306l979 2306h745v-114h-233q-156 0 -156 -185v-2269q0 -184 156 -184h233v-115h-1155v115h233q156 0 156 184v2204l-1053 -2503h-106l-1094 2585v-1364v-86q0 -429 56 -724.5t247 -295.5h78v-115h-885v115h78q128 0 191.5 166t79.5 395t16 545v1327
q0 135 -44 170t-112 35h-209v114z" />
    <glyph glyph-name="afii10031" unicode="&#xcd;" horiz-adv-x="3465" 
d="M1040 1552h1446v1016q0 185 -155 185h-234v114h1155v-114h-233q-156 0 -156 -185v-2269q0 -184 156 -184h233v-115h-1155v115h234q155 0 155 184v1139h-1446v-1139q0 -184 156 -184h234v-115h-1156v115h234q156 0 156 184v2269q0 185 -156 185h-234v114h1156v-114h-234
q-156 0 -156 -185v-1016z" />
    <glyph glyph-name="afii10031" unicode="&#x41d;" horiz-adv-x="3465" 
d="M1040 1552h1446v1016q0 185 -155 185h-234v114h1155v-114h-233q-156 0 -156 -185v-2269q0 -184 156 -184h233v-115h-1155v115h234q155 0 155 184v1139h-1446v-1139q0 -184 156 -184h234v-115h-1156v115h234q156 0 156 184v2269q0 185 -156 185h-234v114h1156v-114h-234
q-156 0 -156 -185v-1016z" />
    <glyph glyph-name="afii10032" unicode="&#xce;" horiz-adv-x="3371" 
d="M287 1442q0 290 96.5 558.5t281.5 476.5t453.5 328t601.5 120q334 0 602 -119t454.5 -328t282 -475.5t95.5 -560.5q0 -297 -96.5 -569t-282.5 -481t-454.5 -329t-600.5 -120q-440 0 -765.5 205.5t-496.5 550t-171 743.5zM733 1442q0 -316 96 -633t318 -534.5t573 -217.5
t573.5 217.5t318 534.5t95.5 633q0 225 -49 458t-163.5 441.5t-307.5 338.5t-467 130q-329 0 -552 -198t-329 -511.5t-106 -658.5z" />
    <glyph glyph-name="afii10032" unicode="&#x41e;" horiz-adv-x="3371" 
d="M287 1442q0 290 96.5 558.5t281.5 476.5t453.5 328t601.5 120q334 0 602 -119t454.5 -328t282 -475.5t95.5 -560.5q0 -297 -96.5 -569t-282.5 -481t-454.5 -329t-600.5 -120q-440 0 -765.5 205.5t-496.5 550t-171 743.5zM733 1442q0 -316 96 -633t318 -534.5t573 -217.5
t573.5 217.5t318 534.5t95.5 633q0 225 -49 458t-163.5 441.5t-307.5 338.5t-467 130q-329 0 -552 -198t-329 -511.5t-106 -658.5z" />
    <glyph glyph-name="afii10033" unicode="&#xcf;" horiz-adv-x="3305" 
d="M274 2867h2818v-114h-233q-156 0 -156 -185v-2269q0 -184 156 -184h233v-115h-1155v115h234q156 0 156 184v2269q0 185 -156 185h-975q-156 0 -156 -185v-2269q0 -184 156 -184h234v-115h-1156v115h234q156 0 156 184v2269q0 185 -156 185h-234v114z" />
    <glyph glyph-name="afii10033" unicode="&#x41f;" horiz-adv-x="3305" 
d="M274 2867h2818v-114h-233q-156 0 -156 -185v-2269q0 -184 156 -184h233v-115h-1155v115h234q156 0 156 184v2269q0 185 -156 185h-975q-156 0 -156 -185v-2269q0 -184 156 -184h234v-115h-1156v115h234q156 0 156 184v2269q0 185 -156 185h-234v114z" />
    <glyph glyph-name="afii10034" unicode="&#xd0;" horiz-adv-x="2757" 
d="M274 2867h1049q281 0 558 -55t496.5 -249.5t219.5 -571.5q0 -394 -312 -631.5t-868 -237.5q-177 0 -373 33v-856q0 -184 156 -184h316v-115h-1237v115h233q156 0 156 184v2269q0 185 -156 185h-238v114zM1044 2662v-1384q141 -41 299 -41q264 0 447.5 104.5t271.5 276
t88 373.5q0 166 -42 303.5t-129 241.5t-222 160.5t-315 56.5q-214 0 -398 -91z" />
    <glyph glyph-name="afii10034" unicode="&#x420;" horiz-adv-x="2757" 
d="M274 2867h1049q281 0 558 -55t496.5 -249.5t219.5 -571.5q0 -394 -312 -631.5t-868 -237.5q-177 0 -373 33v-856q0 -184 156 -184h316v-115h-1237v115h233q156 0 156 184v2269q0 185 -156 185h-238v114zM1044 2662v-1384q141 -41 299 -41q264 0 447.5 104.5t271.5 276
t88 373.5q0 166 -42 303.5t-129 241.5t-222 160.5t-315 56.5q-214 0 -398 -91z" />
    <glyph glyph-name="afii10035" unicode="&#xd1;" horiz-adv-x="3047" 
d="M2552 2867h131l57 -782h-131l-8 98q-11 138 -120 285t-304.5 244.5t-452.5 97.5q-243 0 -430 -110.5t-311.5 -306.5t-187 -451.5t-62.5 -544.5q0 -453 164 -746.5t416.5 -425t525.5 -131.5q599 0 946 721l103 -53q-206 -450 -511.5 -634.5t-668.5 -184.5
q-307 0 -569 105.5t-454.5 302.5t-295 466t-102.5 584q0 370 155 721.5t479 577t803 225.5q508 0 832 -201z" />
    <glyph glyph-name="afii10035" unicode="&#x421;" horiz-adv-x="3047" 
d="M2552 2867h131l57 -782h-131l-8 98q-11 138 -120 285t-304.5 244.5t-452.5 97.5q-243 0 -430 -110.5t-311.5 -306.5t-187 -451.5t-62.5 -544.5q0 -453 164 -746.5t416.5 -425t525.5 -131.5q599 0 946 721l103 -53q-206 -450 -511.5 -634.5t-668.5 -184.5
q-307 0 -569 105.5t-454.5 302.5t-295 466t-102.5 584q0 370 155 721.5t479 577t803 225.5q508 0 832 -201z" />
    <glyph glyph-name="afii10036" unicode="&#xd2;" horiz-adv-x="2793" 
d="M156 2867h2539v-639h-131v94q0 116 -123 216t-303.5 157.5t-335.5 57.5q-188 0 -188 -78v-2376q0 -184 155 -184h234v-115h-1155v115h233q156 0 156 184v2376q0 78 -188 78q-157 0 -337 -57.5t-302.5 -157t-122.5 -216.5v-94h-131v639z" />
    <glyph glyph-name="afii10036" unicode="&#x422;" horiz-adv-x="2793" 
d="M156 2867h2539v-639h-131v94q0 116 -123 216t-303.5 157.5t-335.5 57.5q-188 0 -188 -78v-2376q0 -184 155 -184h234v-115h-1155v115h233q156 0 156 184v2376q0 78 -188 78q-157 0 -337 -57.5t-302.5 -157t-122.5 -216.5v-94h-131v639z" />
    <glyph glyph-name="afii10037" unicode="&#xd3;" horiz-adv-x="3183" 
d="M229 2867h1082v-114h-213q-82 0 -82 -82q0 -34 12 -54l823 -1589q227 446 359 731.5t202 467t90.5 271t20.5 148.5q0 107 -119 107h-209v114h889v-114h-131q-78 -45 -149.5 -136.5t-155 -250.5t-266.5 -543t-293 -611q-221 -453 -316 -634t-209 -331.5t-252.5 -227
t-328.5 -76.5q-133 0 -237 50.5t-161 136t-57 185.5q0 109 70.5 175.5t163.5 66.5q95 0 158 -58t63 -155q0 -46 -12 -90q-13 -41 -13 -70q0 -37 38.5 -71.5t101.5 -34.5q129 0 270 133t270 407l-1011 1926q-107 209 -312 209h-86v114z" />
    <glyph glyph-name="afii10037" unicode="&#x423;" horiz-adv-x="3183" 
d="M229 2867h1082v-114h-213q-82 0 -82 -82q0 -34 12 -54l823 -1589q227 446 359 731.5t202 467t90.5 271t20.5 148.5q0 107 -119 107h-209v114h889v-114h-131q-78 -45 -149.5 -136.5t-155 -250.5t-266.5 -543t-293 -611q-221 -453 -316 -634t-209 -331.5t-252.5 -227
t-328.5 -76.5q-133 0 -237 50.5t-161 136t-57 185.5q0 109 70.5 175.5t163.5 66.5q95 0 158 -58t63 -155q0 -46 -12 -90q-13 -41 -13 -70q0 -37 38.5 -71.5t101.5 -34.5q129 0 270 133t270 407l-1011 1926q-107 209 -312 209h-86v114z" />
    <glyph glyph-name="afii10038" unicode="&#xd4;" horiz-adv-x="3953" 
d="M1434 3031h1155v-115h-234q-155 0 -155 -184v-98q81 8 233 8q505 0 797 -182t399 -438t107 -515q0 -447 -215.5 -695.5t-515.5 -335.5t-613 -87q-86 0 -192 8v-98q0 -184 155 -184h234v-115h-1155v115h233q156 0 156 184v98q-108 -8 -193 -8q-313 0 -612.5 87t-515 335.5
t-215.5 695.5q0 259 106.5 515t398.5 438t797 182q152 0 234 -8v98q0 184 -156 184h-233v115zM1823 512v2007q-98 8 -148 8q-244 0 -458.5 -99.5t-349 -328t-134.5 -588.5q0 -517 281.5 -762t668.5 -245q50 0 140 8zM2200 2519v-2007q90 -8 139 -8q244 0 459.5 100.5
t353 327.5t137.5 579q0 360 -134.5 588.5t-348.5 328t-459 99.5q-49 0 -147 -8z" />
    <glyph glyph-name="afii10038" unicode="&#x424;" horiz-adv-x="3953" 
d="M1434 3031h1155v-115h-234q-155 0 -155 -184v-98q81 8 233 8q505 0 797 -182t399 -438t107 -515q0 -447 -215.5 -695.5t-515.5 -335.5t-613 -87q-86 0 -192 8v-98q0 -184 155 -184h234v-115h-1155v115h233q156 0 156 184v98q-108 -8 -193 -8q-313 0 -612.5 87t-515 335.5
t-215.5 695.5q0 259 106.5 515t398.5 438t797 182q152 0 234 -8v98q0 184 -156 184h-233v115zM1823 512v2007q-98 8 -148 8q-244 0 -458.5 -99.5t-349 -328t-134.5 -588.5q0 -517 281.5 -762t668.5 -245q50 0 140 8zM2200 2519v-2007q90 -8 139 -8q244 0 459.5 100.5
t353 327.5t137.5 579q0 360 -134.5 588.5t-348.5 328t-459 99.5q-49 0 -147 -8z" />
    <glyph glyph-name="afii10039" unicode="&#xd5;" horiz-adv-x="3121" 
d="M229 2867h1131v-114h-258q-82 0 -82 -70q0 -31 70 -135l565 -860q105 131 385 520q246 343 246 458q0 87 -152 87h-197v114h1016v-114h-90q-109 0 -232.5 -93.5t-278.5 -277t-402 -510.5q-62 -83 -117 -157t-104 -138l679 -1020q161 -240 271.5 -341t302.5 -101v-115
h-1118v115h233q66 0 86 61v45q-5 18 -49 82l-643 963q-709 -930 -709 -1069q0 -82 99 -82h221v-115h-905v115q153 38 283.5 140.5t264 263.5t455.5 579q49 59 97.5 122t119.5 152l-684 1032q-115 175 -226.5 260.5t-277.5 88.5v114z" />
    <glyph glyph-name="afii10039" unicode="&#x425;" horiz-adv-x="3121" 
d="M229 2867h1131v-114h-258q-82 0 -82 -70q0 -31 70 -135l565 -860q105 131 385 520q246 343 246 458q0 87 -152 87h-197v114h1016v-114h-90q-109 0 -232.5 -93.5t-278.5 -277t-402 -510.5q-62 -83 -117 -157t-104 -138l679 -1020q161 -240 271.5 -341t302.5 -101v-115
h-1118v115h233q66 0 86 61v45q-5 18 -49 82l-643 963q-709 -930 -709 -1069q0 -82 99 -82h221v-115h-905v115q153 38 283.5 140.5t264 263.5t455.5 579q49 59 97.5 122t119.5 152l-684 1032q-115 175 -226.5 260.5t-277.5 88.5v114z" />
    <glyph glyph-name="afii10040" unicode="&#xd6;" horiz-adv-x="3305" 
d="M274 2867h1156v-114h-234q-156 0 -156 -185v-2269q0 -184 156 -184h975q156 0 156 184v2269q0 185 -156 185h-234v114h1155v-114h-233q-156 0 -156 -185v-2208q0 -100 49 -172.5t230 -72.5h250v-746h-131v160q0 116 -88.5 206t-229 148t-301.5 87.5t-303 29.5h-1905v115
h234q156 0 156 184v2269q0 185 -156 185h-234v114z" />
    <glyph glyph-name="afii10040" unicode="&#x426;" horiz-adv-x="3305" 
d="M274 2867h1156v-114h-234q-156 0 -156 -185v-2269q0 -184 156 -184h975q156 0 156 184v2269q0 185 -156 185h-234v114h1155v-114h-233q-156 0 -156 -185v-2208q0 -100 49 -172.5t230 -72.5h250v-746h-131v160q0 116 -88.5 206t-229 148t-301.5 87.5t-303 29.5h-1905v115
h234q156 0 156 184v2269q0 185 -156 185h-234v114z" />
    <glyph glyph-name="afii10041" unicode="&#xd7;" horiz-adv-x="3097" 
d="M139 2867h1155v-114h-233q-156 0 -156 -185v-831q0 -130 40 -222t142 -144t281 -52q183 0 393 38.5t357 96.5v1114q0 185 -156 185h-233v114h1155v-114h-234q-156 0 -156 -185v-2269q0 -184 156 -184h234v-115h-1237v115h315q156 0 156 184v1040q-406 -172 -811 -172
q-488 0 -633.5 195t-145.5 403v803q0 185 -155 185h-234v114z" />
    <glyph glyph-name="afii10041" unicode="&#x427;" horiz-adv-x="3097" 
d="M139 2867h1155v-114h-233q-156 0 -156 -185v-831q0 -130 40 -222t142 -144t281 -52q183 0 393 38.5t357 96.5v1114q0 185 -156 185h-233v114h1155v-114h-234q-156 0 -156 -185v-2269q0 -184 156 -184h234v-115h-1237v115h315q156 0 156 184v1040q-406 -172 -811 -172
q-488 0 -633.5 195t-145.5 403v803q0 185 -155 185h-234v114z" />
    <glyph glyph-name="afii10042" unicode="&#xd8;" horiz-adv-x="4657" 
d="M274 2867h1127v-114h-205q-156 0 -156 -185v-2269q0 -184 156 -184h819q156 0 156 184v2269q0 185 -156 185h-205v114h1098v-114h-205q-155 0 -155 -185v-2269q0 -184 155 -184h820q155 0 155 184v2269q0 185 -155 185h-205v114h1126v-114h-233q-156 0 -156 -185v-2269
q0 -184 156 -184h233v-115h-4170v115h234q156 0 156 184v2269q0 185 -156 185h-234v114z" />
    <glyph glyph-name="afii10042" unicode="&#x428;" horiz-adv-x="4657" 
d="M274 2867h1127v-114h-205q-156 0 -156 -185v-2269q0 -184 156 -184h819q156 0 156 184v2269q0 185 -156 185h-205v114h1098v-114h-205q-155 0 -155 -185v-2269q0 -184 155 -184h820q155 0 155 184v2269q0 185 -155 185h-205v114h1126v-114h-233q-156 0 -156 -185v-2269
q0 -184 156 -184h233v-115h-4170v115h234q156 0 156 184v2269q0 185 -156 185h-234v114z" />
    <glyph glyph-name="afii10043" unicode="&#xd9;" horiz-adv-x="4657" 
d="M3318 2867h1126v-114h-233q-156 0 -156 -185v-2208q0 -100 49 -172.5t230 -72.5h249v-746h-131v180q0 129 -138.5 232t-355 161t-427.5 58h-3257v115h234q156 0 156 184v2269q0 185 -156 185h-234v114h1127v-114h-205q-156 0 -156 -185v-2269q0 -184 156 -184h819
q156 0 156 184v2269q0 185 -156 185h-205v114h1098v-114h-205q-155 0 -155 -185v-2269q0 -184 155 -184h820q155 0 155 184v2269q0 185 -155 185h-205v114z" />
    <glyph glyph-name="afii10043" unicode="&#x429;" horiz-adv-x="4657" 
d="M3318 2867h1126v-114h-233q-156 0 -156 -185v-2208q0 -100 49 -172.5t230 -72.5h249v-746h-131v180q0 129 -138.5 232t-355 161t-427.5 58h-3257v115h234q156 0 156 184v2269q0 185 -156 185h-234v114h1127v-114h-205q-156 0 -156 -185v-2269q0 -184 156 -184h819
q156 0 156 184v2269q0 185 -156 185h-205v114h1098v-114h-205q-155 0 -155 -185v-2269q0 -184 155 -184h820q155 0 155 184v2269q0 185 -155 185h-205v114z" />
    <glyph glyph-name="afii10044" unicode="&#xda;" horiz-adv-x="3195" 
d="M1880 0h-1221v115h234q156 0 156 184v2318q0 85 -53.5 110.5t-188.5 25.5q-218 0 -411.5 -122t-202.5 -292l-5 -90h-131l37 618h1721v-114h-234q-156 0 -156 -185v-876q263 49 476 49q349 0 600.5 -114t380.5 -317t129 -470q0 -289 -127 -465.5t-313.5 -256t-357.5 -99
t-333 -19.5zM1425 1577v-1368q212 -94 406 -94q333 0 531 198t198 564q0 436 -237 584.5t-537 148.5q-199 0 -361 -33z" />
    <glyph glyph-name="afii10044" unicode="&#x42a;" horiz-adv-x="3195" 
d="M1880 0h-1221v115h234q156 0 156 184v2318q0 85 -53.5 110.5t-188.5 25.5q-218 0 -411.5 -122t-202.5 -292l-5 -90h-131l37 618h1721v-114h-234q-156 0 -156 -185v-876q263 49 476 49q349 0 600.5 -114t380.5 -317t129 -470q0 -289 -127 -465.5t-313.5 -256t-357.5 -99
t-333 -19.5zM1425 1577v-1368q212 -94 406 -94q333 0 531 198t198 564q0 436 -237 584.5t-537 148.5q-199 0 -361 -33z" />
    <glyph glyph-name="afii10045" unicode="&#xdb;" horiz-adv-x="4141" 
d="M274 2867h1156v-114h-234q-156 0 -156 -185v-876q263 49 476 49q349 0 600.5 -114t380.5 -317t129 -470q0 -289 -127 -465.5t-313.5 -256t-357.5 -99t-333 -19.5h-1221v115h234q156 0 156 184v2269q0 185 -156 185h-234v114zM1040 1577v-1368q212 -94 406 -94
q333 0 531 198t198 564q0 436 -237 584.5t-537 148.5q-199 0 -361 -33zM2773 2867h1155v-114h-233q-156 0 -156 -185v-2269q0 -184 156 -184h233v-115h-1155v115h233q156 0 156 184v2269q0 185 -156 185h-233v114z" />
    <glyph glyph-name="afii10045" unicode="&#x42b;" horiz-adv-x="4141" 
d="M274 2867h1156v-114h-234q-156 0 -156 -185v-876q263 49 476 49q349 0 600.5 -114t380.5 -317t129 -470q0 -289 -127 -465.5t-313.5 -256t-357.5 -99t-333 -19.5h-1221v115h234q156 0 156 184v2269q0 185 -156 185h-234v114zM1040 1577v-1368q212 -94 406 -94
q333 0 531 198t198 564q0 436 -237 584.5t-537 148.5q-199 0 -361 -33zM2773 2867h1155v-114h-233q-156 0 -156 -185v-2269q0 -184 156 -184h233v-115h-1155v115h233q156 0 156 184v2269q0 185 -156 185h-233v114z" />
    <glyph glyph-name="afii10046" unicode="&#xdc;" horiz-adv-x="2810" 
d="M274 2867h1156v-114h-234q-156 0 -156 -185v-876q263 49 476 49q349 0 600.5 -114t380.5 -317t129 -470q0 -289 -127 -465.5t-313.5 -256t-357.5 -99t-333 -19.5h-1221v115h234q156 0 156 184v2269q0 185 -156 185h-234v114zM1040 1577v-1368q212 -94 406 -94
q333 0 531 198t198 564q0 436 -237 584.5t-537 148.5q-199 0 -361 -33z" />
    <glyph glyph-name="afii10046" unicode="&#x42c;" horiz-adv-x="2810" 
d="M274 2867h1156v-114h-234q-156 0 -156 -185v-876q263 49 476 49q349 0 600.5 -114t380.5 -317t129 -470q0 -289 -127 -465.5t-313.5 -256t-357.5 -99t-333 -19.5h-1221v115h234q156 0 156 184v2269q0 185 -156 185h-234v114zM1040 1577v-1368q212 -94 406 -94
q333 0 531 198t198 564q0 436 -237 584.5t-537 148.5q-199 0 -361 -33z" />
    <glyph glyph-name="afii10047" unicode="&#xdd;" horiz-adv-x="3002" 
d="M1712 1548h623q0 212 -35.5 424.5t-129 404t-269.5 312.5t-439 121q-216 0 -411 -78t-318.5 -209t-138.5 -282l-8 -87h-156l49 713h160l-8 -102q355 160 766 160q429 0 744 -171.5t479.5 -487t164.5 -738.5q0 -437 -176.5 -799t-517 -574t-805.5 -212q-332 0 -560.5 89.5
t-340 226t-111.5 273.5q0 136 71.5 205.5t170.5 69.5q113 0 171 -72t58 -170q0 -41 -32 -123q-37 -78 -37 -106q0 -72 77 -137t214 -103.5t311 -38.5q371 0 609 204t343 519t105 654h-623q-411 0 -811 -95v295q438 -86 811 -86z" />
    <glyph glyph-name="afii10047" unicode="&#x42d;" horiz-adv-x="3002" 
d="M1712 1548h623q0 212 -35.5 424.5t-129 404t-269.5 312.5t-439 121q-216 0 -411 -78t-318.5 -209t-138.5 -282l-8 -87h-156l49 713h160l-8 -102q355 160 766 160q429 0 744 -171.5t479.5 -487t164.5 -738.5q0 -437 -176.5 -799t-517 -574t-805.5 -212q-332 0 -560.5 89.5
t-340 226t-111.5 273.5q0 136 71.5 205.5t170.5 69.5q113 0 171 -72t58 -170q0 -41 -32 -123q-37 -78 -37 -106q0 -72 77 -137t214 -103.5t311 -38.5q371 0 609 204t343 519t105 654h-623q-411 0 -811 -95v295q438 -86 811 -86z" />
    <glyph glyph-name="afii10048" unicode="&#xde;" horiz-adv-x="4559" 
d="M1040 1556h443q20 268 121.5 513.5t283 439t443 305t581.5 111.5q334 0 602 -119t454.5 -328t282 -475.5t95.5 -560.5q0 -297 -96.5 -569t-282.5 -481t-454.5 -329t-600.5 -120q-522 0 -880 282q-170 134 -295 325t-191.5 419t-66.5 473h-439v-1143q0 -184 156 -184h234
v-115h-1156v115h234q156 0 156 184v2269q0 185 -156 185h-234v114h1156v-114h-234q-156 0 -156 -185v-1012zM1925 1442q0 -228 50.5 -466.5t166.5 -449t308 -340t462 -129.5q351 0 573.5 217.5t318 534.5t95.5 633q0 345 -105.5 658.5t-329 511.5t-552.5 198t-552 -198
t-329 -511.5t-106 -658.5z" />
    <glyph glyph-name="afii10048" unicode="&#x42e;" horiz-adv-x="4559" 
d="M1040 1556h443q20 268 121.5 513.5t283 439t443 305t581.5 111.5q334 0 602 -119t454.5 -328t282 -475.5t95.5 -560.5q0 -297 -96.5 -569t-282.5 -481t-454.5 -329t-600.5 -120q-522 0 -880 282q-170 134 -295 325t-191.5 419t-66.5 473h-439v-1143q0 -184 156 -184h234
v-115h-1156v115h234q156 0 156 184v2269q0 185 -156 185h-234v114h1156v-114h-234q-156 0 -156 -185v-1012zM1925 1442q0 -228 50.5 -466.5t166.5 -449t308 -340t462 -129.5q351 0 573.5 217.5t318 534.5t95.5 633q0 345 -105.5 658.5t-329 511.5t-552.5 198t-552 -198
t-329 -511.5t-106 -658.5z" />
    <glyph glyph-name="afii10049" unicode="&#xdf;" horiz-adv-x="3015" 
d="M2802 0h-1155v115h233q156 0 156 184v1094q-220 -4 -375 -72.5t-249.5 -171.5t-140 -189.5t-124.5 -263.5q-144 -326 -314 -539.5t-407 -213.5q-147 0 -243.5 88t-96.5 235v62h111q0 -201 106 -201q65 0 112 73t142 267q110 232 212.5 395t285 308.5t444.5 197.5v25
q-17 0 -48 -2t-46 -2q-277 0 -500 95.5t-349 266t-126 383.5q0 333 206.5 495t457.5 200t544 38h1164v-114h-234q-155 0 -155 -185v-2269q0 -184 155 -184h234v-115zM2036 1507v1188q-226 58 -516 58q-245 0 -394.5 -99t-211.5 -247t-62 -306q0 -258 142.5 -394.5t328 -178
t381.5 -41.5q209 0 332 20z" />
    <glyph glyph-name="afii10049" unicode="&#x42f;" horiz-adv-x="3015" 
d="M2802 0h-1155v115h233q156 0 156 184v1094q-220 -4 -375 -72.5t-249.5 -171.5t-140 -189.5t-124.5 -263.5q-144 -326 -314 -539.5t-407 -213.5q-147 0 -243.5 88t-96.5 235v62h111q0 -201 106 -201q65 0 112 73t142 267q110 232 212.5 395t285 308.5t444.5 197.5v25
q-17 0 -48 -2t-46 -2q-277 0 -500 95.5t-349 266t-126 383.5q0 333 206.5 495t457.5 200t544 38h1164v-114h-234q-155 0 -155 -185v-2269q0 -184 155 -184h234v-115zM2036 1507v1188q-226 58 -516 58q-245 0 -394.5 -99t-211.5 -247t-62 -306q0 -258 142.5 -394.5t328 -178
t381.5 -41.5q209 0 332 20z" />
    <glyph glyph-name="afii10065" unicode="&#xe0;" horiz-adv-x="1917" 
d="M1249 1130v213q0 137 -26 243t-125.5 183.5t-298.5 77.5q-142 0 -190 -42.5t-48 -84.5q0 -25 8 -65q13 -42 13 -86q0 -90 -54 -135t-131 -45q-83 0 -129.5 58.5t-46.5 137.5q0 137 140.5 244.5t424.5 107.5q775 0 775 -594v-1069q0 -159 90 -159q95 0 151 159l90 -36
q-33 -105 -116 -194t-236 -89q-161 0 -226 112.5t-65 243.5q-293 -356 -684 -356q-200 0 -317 114t-117 291q0 172 88.5 301t241 217t347 147.5t441.5 104.5zM1249 430v610q-311 -59 -477.5 -157.5t-225.5 -213t-59 -243.5q0 -147 69.5 -229t184.5 -82q235 0 508 315z" />
    <glyph glyph-name="afii10065" unicode="&#x430;" horiz-adv-x="1917" 
d="M1249 1130v213q0 137 -26 243t-125.5 183.5t-298.5 77.5q-142 0 -190 -42.5t-48 -84.5q0 -25 8 -65q13 -42 13 -86q0 -90 -54 -135t-131 -45q-83 0 -129.5 58.5t-46.5 137.5q0 137 140.5 244.5t424.5 107.5q775 0 775 -594v-1069q0 -159 90 -159q95 0 151 159l90 -36
q-33 -105 -116 -194t-236 -89q-161 0 -226 112.5t-65 243.5q-293 -356 -684 -356q-200 0 -317 114t-117 291q0 172 88.5 301t241 217t347 147.5t441.5 104.5zM1249 430v610q-311 -59 -477.5 -157.5t-225.5 -213t-59 -243.5q0 -147 69.5 -229t184.5 -82q235 0 508 315z" />
    <glyph glyph-name="afii10066" unicode="&#xe1;" horiz-adv-x="2134" 
d="M279 1278h45q40 165 131 315.5t245.5 247t368.5 96.5q284 0 492 -136.5t317 -364.5t109 -490q0 -224 -63.5 -405.5t-186 -314t-292.5 -202t-376 -69.5q-154 0 -353.5 53t-384 274.5t-184.5 663.5q0 553 127 933t312.5 591.5t358 306.5t337.5 148q205 67 297.5 104.5
t125 73t32.5 92.5h82q0 -202 -92 -333.5t-227.5 -204.5t-348.5 -154q-275 -102 -450 -222.5t-290 -360.5t-132 -642zM1077 45q260 0 410.5 221t150.5 680q0 311 -69 511.5t-195.5 295t-296.5 94.5q-168 0 -295 -94.5t-198.5 -296t-71.5 -510.5q0 -498 163.5 -699.5
t401.5 -201.5z" />
    <glyph glyph-name="afii10066" unicode="&#x431;" horiz-adv-x="2134" 
d="M279 1278h45q40 165 131 315.5t245.5 247t368.5 96.5q284 0 492 -136.5t317 -364.5t109 -490q0 -224 -63.5 -405.5t-186 -314t-292.5 -202t-376 -69.5q-154 0 -353.5 53t-384 274.5t-184.5 663.5q0 553 127 933t312.5 591.5t358 306.5t337.5 148q205 67 297.5 104.5
t125 73t32.5 92.5h82q0 -202 -92 -333.5t-227.5 -204.5t-348.5 -154q-275 -102 -450 -222.5t-290 -360.5t-132 -642zM1077 45q260 0 410.5 221t150.5 680q0 311 -69 511.5t-195.5 295t-296.5 94.5q-168 0 -295 -94.5t-198.5 -296t-71.5 -510.5q0 -498 163.5 -699.5
t401.5 -201.5z" />
    <glyph glyph-name="afii10067" unicode="&#xe2;" horiz-adv-x="2081" 
d="M131 0v90h160q79 0 113 20t34 78v1516q0 59 -34 78.5t-113 19.5h-160v90h1057q340 0 491.5 -131.5t151.5 -330.5q0 -208 -153.5 -299t-305.5 -107v-16q206 -18 371.5 -135t165.5 -336q0 -109 -52 -228t-224.5 -214t-497.5 -95h-1004zM750 1065h319q185 0 309.5 96
t124.5 281q0 360 -487 360q-142 0 -266 -49v-688zM750 975v-823q121 -62 266 -62q246 0 391 112t145 330q0 275 -160.5 359t-338.5 84h-303z" />
    <glyph glyph-name="afii10067" unicode="&#x432;" horiz-adv-x="2081" 
d="M131 0v90h160q79 0 113 20t34 78v1516q0 59 -34 78.5t-113 19.5h-160v90h1057q340 0 491.5 -131.5t151.5 -330.5q0 -208 -153.5 -299t-305.5 -107v-16q206 -18 371.5 -135t165.5 -336q0 -109 -52 -228t-224.5 -214t-497.5 -95h-1004zM750 1065h319q185 0 309.5 96
t124.5 281q0 360 -487 360q-142 0 -266 -49v-688zM750 975v-823q121 -62 266 -62q246 0 391 112t145 330q0 275 -160.5 359t-338.5 84h-303z" />
    <glyph glyph-name="afii10068" unicode="&#xe3;" horiz-adv-x="1704" 
d="M131 0v90h160q79 0 113 20t34 78v1516q0 59 -34 78.5t-113 19.5h-160v90h1524v-503h-103v36q0 148 -143.5 262.5t-515.5 114.5h-49q-94 0 -94 -98v-1516q0 -58 34 -78t113 -20h201v-90h-967z" />
    <glyph glyph-name="afii10068" unicode="&#x433;" horiz-adv-x="1704" 
d="M131 0v90h160q79 0 113 20t34 78v1516q0 59 -34 78.5t-113 19.5h-160v90h1524v-503h-103v36q0 148 -143.5 262.5t-515.5 114.5h-49q-94 0 -94 -98v-1516q0 -58 34 -78t113 -20h201v-90h-967z" />
    <glyph glyph-name="afii10069" unicode="&#xe4;" horiz-adv-x="2150" 
d="M385 1892h1618v-90h-160q-79 0 -113 -19.5t-34 -78.5v-1507q0 -63 33 -85t114 -22h180v-590h-102v127q0 106 -115 192.5t-287 133.5t-335 47h-430q-189 0 -324.5 -54.5t-202.5 -140.5t-67 -178v-127h-103v590h86q158 0 295.5 310t224.5 698t87 520q0 184 -230 184h-135
v90zM1384 209v1474q0 78 -43 98.5t-112 20.5h-123q-115 0 -165.5 -53.5t-80.5 -237.5q-98 -604 -270 -1048q-70 -199 -70 -250q0 -79 60.5 -101t152.5 -22h516q88 0 111.5 32.5t23.5 86.5z" />
    <glyph glyph-name="afii10069" unicode="&#x434;" horiz-adv-x="2150" 
d="M385 1892h1618v-90h-160q-79 0 -113 -19.5t-34 -78.5v-1507q0 -63 33 -85t114 -22h180v-590h-102v127q0 106 -115 192.5t-287 133.5t-335 47h-430q-189 0 -324.5 -54.5t-202.5 -140.5t-67 -178v-127h-103v590h86q158 0 295.5 310t224.5 698t87 520q0 184 -230 184h-135
v90zM1384 209v1474q0 78 -43 98.5t-112 20.5h-123q-115 0 -165.5 -53.5t-80.5 -237.5q-98 -604 -270 -1048q-70 -199 -70 -250q0 -79 60.5 -101t152.5 -22h516q88 0 111.5 32.5t23.5 86.5z" />
    <glyph glyph-name="afii10070" unicode="&#xe5;" horiz-adv-x="1872" 
d="M1749 1081h-1241q-4 -53 -4 -155q0 -305 86 -489.5t218.5 -259.5t281.5 -75q370 0 569 381l74 -41q-84 -158 -183 -266t-230 -164.5t-308 -56.5q-174 0 -330.5 62t-277.5 185.5t-189 302.5t-68 404q0 285 103 521t299 371.5t463 135.5q254 0 420 -129.5t241.5 -326
t75.5 -400.5zM508 1171h905v58q0 326 -117.5 472t-291.5 146q-99 0 -202 -52.5t-187.5 -204.5t-106.5 -419z" />
    <glyph glyph-name="afii10070" unicode="&#x435;" horiz-adv-x="1872" 
d="M1749 1081h-1241q-4 -53 -4 -155q0 -305 86 -489.5t218.5 -259.5t281.5 -75q370 0 569 381l74 -41q-84 -158 -183 -266t-230 -164.5t-308 -56.5q-174 0 -330.5 62t-277.5 185.5t-189 302.5t-68 404q0 285 103 521t299 371.5t463 135.5q254 0 420 -129.5t241.5 -326
t75.5 -400.5zM508 1171h905v58q0 326 -117.5 472t-291.5 146q-99 0 -202 -52.5t-187.5 -204.5t-106.5 -419z" />
    <glyph glyph-name="afii10072" unicode="&#xe6;" horiz-adv-x="3047" 
d="M1061 1892h926v-90h-160q-68 0 -108 -16.5t-40 -81.5v-643h90q122 0 203.5 87t190.5 331q71 161 127 253t138 148.5t198 56.5q113 0 177 -57t64 -139q0 -76 -43 -128t-108 -52q-141 0 -172 143q-14 90 -70 90q-51 0 -81 -64t-62 -174q-74 -245 -154.5 -373t-263.5 -167
v-17q287 -29 440.5 -214t251.5 -437q47 -125 77 -179t91 -54q94 0 94 176h90q0 -136 -65.5 -236t-208.5 -100q-116 0 -209.5 66t-165 171.5t-140 252t-116.5 251.5q-66 139 -137.5 207t-214.5 68h-21v-783q0 -63 40 -80.5t108 -17.5h160v-90h-926v90h160q67 0 107 17t40 81
v783h-20q-143 0 -215 -68t-138 -207q-134 -291 -195 -409t-173 -225t-262 -107q-143 0 -209 101t-66 235h90q0 -176 94 -176q62 0 94.5 58.5t73.5 174.5q97 249 252 435.5t441 215.5v17q-127 27 -206 103.5t-119 171t-93 265.5q-30 104 -61.5 171t-82.5 67q-55 0 -69 -90
q-32 -143 -172 -143q-65 0 -108.5 52.5t-43.5 127.5q0 81 64.5 138.5t177.5 57.5q168 0 264.5 -112t198.5 -346q109 -244 190 -331t203 -87h90v643q0 66 -40 82t-107 16h-160v90z" />
    <glyph glyph-name="afii10072" unicode="&#x436;" horiz-adv-x="3047" 
d="M1061 1892h926v-90h-160q-68 0 -108 -16.5t-40 -81.5v-643h90q122 0 203.5 87t190.5 331q71 161 127 253t138 148.5t198 56.5q113 0 177 -57t64 -139q0 -76 -43 -128t-108 -52q-141 0 -172 143q-14 90 -70 90q-51 0 -81 -64t-62 -174q-74 -245 -154.5 -373t-263.5 -167
v-17q287 -29 440.5 -214t251.5 -437q47 -125 77 -179t91 -54q94 0 94 176h90q0 -136 -65.5 -236t-208.5 -100q-116 0 -209.5 66t-165 171.5t-140 252t-116.5 251.5q-66 139 -137.5 207t-214.5 68h-21v-783q0 -63 40 -80.5t108 -17.5h160v-90h-926v90h160q67 0 107 17t40 81
v783h-20q-143 0 -215 -68t-138 -207q-134 -291 -195 -409t-173 -225t-262 -107q-143 0 -209 101t-66 235h90q0 -176 94 -176q62 0 94.5 58.5t73.5 174.5q97 249 252 435.5t441 215.5v17q-127 27 -206 103.5t-119 171t-93 265.5q-30 104 -61.5 171t-82.5 67q-55 0 -69 -90
q-32 -143 -172 -143q-65 0 -108.5 52.5t-43.5 127.5q0 81 64.5 138.5t177.5 57.5q168 0 264.5 -112t198.5 -346q109 -244 190 -331t203 -87h90v643q0 66 -40 82t-107 16h-160v90z" />
    <glyph glyph-name="afii10073" unicode="&#xe7;" horiz-adv-x="1790" 
d="M225 1892h103l-9 -94q260 139 570 139q332 0 502 -128.5t170 -321.5q0 -128 -69.5 -220.5t-180.5 -143t-230 -58.5v-29q214 0 375.5 -122.5t161.5 -376.5q0 -224 -135.5 -355t-324.5 -179t-376 -48q-336 0 -514 118.5t-178 270.5q0 91 42.5 158t133.5 67q72 0 128.5 -50
t56.5 -142q0 -43 -13 -82q-2 -8 -13 -36t-11 -46q0 -60 94 -114t278 -54q217 0 346.5 140.5t129.5 363.5q0 165 -98 307.5t-373 142.5q-102 0 -218 -32v155q111 -24 230 -24q430 0 430 381q0 149 -87 258.5t-286 109.5q-190 0 -367.5 -113.5t-201.5 -291.5l-8 -66h-103z" />
    <glyph glyph-name="afii10073" unicode="&#x437;" horiz-adv-x="1790" 
d="M225 1892h103l-9 -94q260 139 570 139q332 0 502 -128.5t170 -321.5q0 -128 -69.5 -220.5t-180.5 -143t-230 -58.5v-29q214 0 375.5 -122.5t161.5 -376.5q0 -224 -135.5 -355t-324.5 -179t-376 -48q-336 0 -514 118.5t-178 270.5q0 91 42.5 158t133.5 67q72 0 128.5 -50
t56.5 -142q0 -43 -13 -82q-2 -8 -13 -36t-11 -46q0 -60 94 -114t278 -54q217 0 346.5 140.5t129.5 363.5q0 165 -98 307.5t-373 142.5q-102 0 -218 -32v155q111 -24 230 -24q430 0 430 381q0 149 -87 258.5t-286 109.5q-190 0 -367.5 -113.5t-201.5 -291.5l-8 -66h-103z" />
    <glyph glyph-name="afii10074" unicode="&#xe8;" horiz-adv-x="2392" 
d="M131 0v90h160q79 0 113 20t34 78v1516q0 59 -34 78.5t-113 19.5h-160v90h885v-90h-119q-79 0 -113 -19.5t-34 -78.5v-1237l892 1130v107q0 59 -34 78.5t-113 19.5h-119v90h885v-90h-160q-79 0 -113 -19.5t-34 -78.5v-1516q0 -58 34 -78t113 -20h160v-90h-885v90h119
q79 0 113 20t34 78v1266l-892 -1139v-127q0 -61 32 -79.5t115 -18.5h119v-90h-885z" />
    <glyph glyph-name="afii10074" unicode="&#x438;" horiz-adv-x="2392" 
d="M131 0v90h160q79 0 113 20t34 78v1516q0 59 -34 78.5t-113 19.5h-160v90h885v-90h-119q-79 0 -113 -19.5t-34 -78.5v-1237l892 1130v107q0 59 -34 78.5t-113 19.5h-119v90h885v-90h-160q-79 0 -113 -19.5t-34 -78.5v-1516q0 -58 34 -78t113 -20h160v-90h-885v90h119
q79 0 113 20t34 78v1266l-892 -1139v-127q0 -61 32 -79.5t115 -18.5h119v-90h-885z" />
    <glyph glyph-name="afii10075" unicode="&#xe9;" horiz-adv-x="2392" 
d="M131 0v90h160q79 0 113 20t34 78v1516q0 59 -34 78.5t-113 19.5h-160v90h885v-90h-119q-79 0 -113 -19.5t-34 -78.5v-1237l892 1130v107q0 59 -34 78.5t-113 19.5h-119v90h885v-90h-160q-79 0 -113 -19.5t-34 -78.5v-1516q0 -58 34 -78t113 -20h160v-90h-885v90h119
q79 0 113 20t34 78v1266l-892 -1139v-127q0 -61 32 -79.5t115 -18.5h119v-90h-885zM1196 2191q-184 0 -322.5 70.5t-211 179.5t-72.5 217q0 99 57.5 154t143.5 55q83 0 121 -56.5t38 -123.5q0 -28 -24 -78q-12 -26 -35.5 -63.5t-31 -54t-7.5 -42.5q0 -55 93.5 -111.5
t250.5 -56.5q165 0 254.5 55.5t89.5 112.5q0 50 -33 99q-65 87 -65 139q0 75 43.5 127.5t120.5 52.5q83 0 139.5 -54.5t56.5 -154.5q0 -106 -73 -215t-212 -180.5t-321 -71.5z" />
    <glyph glyph-name="afii10075" unicode="&#x439;" horiz-adv-x="2392" 
d="M131 0v90h160q79 0 113 20t34 78v1516q0 59 -34 78.5t-113 19.5h-160v90h885v-90h-119q-79 0 -113 -19.5t-34 -78.5v-1237l892 1130v107q0 59 -34 78.5t-113 19.5h-119v90h885v-90h-160q-79 0 -113 -19.5t-34 -78.5v-1516q0 -58 34 -78t113 -20h160v-90h-885v90h119
q79 0 113 20t34 78v1266l-892 -1139v-127q0 -61 32 -79.5t115 -18.5h119v-90h-885zM1196 2191q-184 0 -322.5 70.5t-211 179.5t-72.5 217q0 99 57.5 154t143.5 55q83 0 121 -56.5t38 -123.5q0 -28 -24 -78q-12 -26 -35.5 -63.5t-31 -54t-7.5 -42.5q0 -55 93.5 -111.5
t250.5 -56.5q165 0 254.5 55.5t89.5 112.5q0 50 -33 99q-65 87 -65 139q0 75 43.5 127.5t120.5 52.5q83 0 139.5 -54.5t56.5 -154.5q0 -106 -73 -215t-212 -180.5t-321 -71.5z" />
    <glyph glyph-name="afii10076" unicode="&#xea;" horiz-adv-x="2187" 
d="M131 1892h926v-90h-160q-79 0 -113 -19.5t-34 -78.5v-643h159q129 0 217 87.5t189 317.5q105 236 214.5 353.5t276.5 117.5q113 0 177.5 -55t64.5 -141q0 -78 -41.5 -129t-110.5 -51q-140 0 -172 143q-12 44 -23 67t-46 23q-80 0 -156 -238q-51 -162 -88 -249.5
t-126 -175.5t-232 -115v-17q284 -29 439.5 -215t252.5 -436q47 -125 77 -179t91 -54q94 0 94 176h90q0 -136 -65.5 -236t-208.5 -100q-149 0 -262 107t-174 225t-195 409q-66 139 -137.5 207t-214.5 68h-90v-783q0 -58 34 -78t113 -20h160v-90h-926v90h160q79 0 113 20
t34 78v1516q0 59 -34 78.5t-113 19.5h-160v90z" />
    <glyph glyph-name="afii10076" unicode="&#x43a;" horiz-adv-x="2187" 
d="M131 1892h926v-90h-160q-79 0 -113 -19.5t-34 -78.5v-643h159q129 0 217 87.5t189 317.5q105 236 214.5 353.5t276.5 117.5q113 0 177.5 -55t64.5 -141q0 -78 -41.5 -129t-110.5 -51q-140 0 -172 143q-12 44 -23 67t-46 23q-80 0 -156 -238q-51 -162 -88 -249.5
t-126 -175.5t-232 -115v-17q284 -29 439.5 -215t252.5 -436q47 -125 77 -179t91 -54q94 0 94 176h90q0 -136 -65.5 -236t-208.5 -100q-149 0 -262 107t-174 225t-195 409q-66 139 -137.5 207t-214.5 68h-90v-783q0 -58 34 -78t113 -20h160v-90h-926v90h160q79 0 113 20
t34 78v1516q0 59 -34 78.5t-113 19.5h-160v90z" />
    <glyph glyph-name="afii10077" unicode="&#xeb;" horiz-adv-x="2261" 
d="M1204 0v90h160q79 0 113 20t34 78v1516q0 98 -94 98h-106q-95 0 -148.5 -13t-92.5 -61.5t-65.5 -146.5t-50.5 -274q-63 -505 -133 -789.5t-184.5 -423.5t-300.5 -139q-129 0 -208 66t-79 176q0 102 56.5 151t127.5 49q69 0 121 -45t52 -131v-12q0 -98 69 -98
q154 0 275 585q32 150 79.5 472.5t47.5 433.5q0 126 -57 163t-177 37h-151v90h1638v-90h-160q-79 0 -113 -19.5t-34 -78.5v-1516q0 -58 34 -78t113 -20h160v-90h-926z" />
    <glyph glyph-name="afii10077" unicode="&#x43b;" horiz-adv-x="2261" 
d="M1204 0v90h160q79 0 113 20t34 78v1516q0 98 -94 98h-106q-95 0 -148.5 -13t-92.5 -61.5t-65.5 -146.5t-50.5 -274q-63 -505 -133 -789.5t-184.5 -423.5t-300.5 -139q-129 0 -208 66t-79 176q0 102 56.5 151t127.5 49q69 0 121 -45t52 -131v-12q0 -98 69 -98
q154 0 275 585q32 150 79.5 472.5t47.5 433.5q0 126 -57 163t-177 37h-151v90h1638v-90h-160q-79 0 -113 -19.5t-34 -78.5v-1516q0 -58 34 -78t113 -20h160v-90h-926z" />
    <glyph glyph-name="afii10078" unicode="&#xec;" horiz-adv-x="2732" 
d="M131 1892h651l607 -1425l598 1425h618v-90h-160q-79 0 -113 -19.5t-34 -78.5v-1516q0 -58 34 -78t113 -20h160v-90h-926v90h160q79 0 113.5 20t34.5 78v1463l-684 -1651h-78l-705 1651v-963q0 -330 62.5 -464t142.5 -134h66v-90h-664v90h86q80 0 142.5 134t62.5 464v1016
q0 65 -36.5 81.5t-115.5 16.5h-135v90z" />
    <glyph glyph-name="afii10078" unicode="&#x43c;" horiz-adv-x="2732" 
d="M131 1892h651l607 -1425l598 1425h618v-90h-160q-79 0 -113 -19.5t-34 -78.5v-1516q0 -58 34 -78t113 -20h160v-90h-926v90h160q79 0 113.5 20t34.5 78v1463l-684 -1651h-78l-705 1651v-963q0 -330 62.5 -464t142.5 -134h66v-90h-664v90h86q80 0 142.5 134t62.5 464v1016
q0 65 -36.5 81.5t-115.5 16.5h-135v90z" />
    <glyph glyph-name="afii10079" unicode="&#xed;" horiz-adv-x="2351" 
d="M1602 1012h-852v-824q0 -58 34 -78t113 -20h115v-90h-881v90h160q79 0 113 20t34 78v1516q0 59 -34 78.5t-113 19.5h-160v90h881v-90h-115q-79 0 -113 -19.5t-34 -78.5v-602h852v602q0 59 -34.5 78.5t-113.5 19.5h-119v90h885v-90h-160q-79 0 -113 -19.5t-34 -78.5v-1516
q0 -58 34 -78t113 -20h160v-90h-885v90h119q79 0 113.5 20t34.5 78v824z" />
    <glyph glyph-name="afii10079" unicode="&#x43d;" horiz-adv-x="2351" 
d="M1602 1012h-852v-824q0 -58 34 -78t113 -20h115v-90h-881v90h160q79 0 113 20t34 78v1516q0 59 -34 78.5t-113 19.5h-160v90h881v-90h-115q-79 0 -113 -19.5t-34 -78.5v-602h852v602q0 59 -34.5 78.5t-113.5 19.5h-119v90h885v-90h-160q-79 0 -113 -19.5t-34 -78.5v-1516
q0 -58 34 -78t113 -20h160v-90h-885v90h119q79 0 113.5 20t34.5 78v824z" />
    <glyph glyph-name="afii10080" unicode="&#xee;" horiz-adv-x="2130" 
d="M147 946q0 170 48.5 342.5t158.5 322t288.5 238t422.5 88.5q218 0 388.5 -75t288.5 -210.5t179 -316t61 -389.5q0 -278 -107.5 -503.5t-316 -356.5t-493.5 -131q-244 0 -423 90t-288 237.5t-158 320.5t-49 343zM504 946q0 -536 179.5 -718.5t381.5 -182.5
q204 0 382.5 182t178.5 719q0 374 -96.5 575t-221.5 263.5t-243 62.5q-203 0 -382 -182.5t-179 -718.5z" />
    <glyph glyph-name="afii10080" unicode="&#x43e;" horiz-adv-x="2130" 
d="M147 946q0 170 48.5 342.5t158.5 322t288.5 238t422.5 88.5q218 0 388.5 -75t288.5 -210.5t179 -316t61 -389.5q0 -278 -107.5 -503.5t-316 -356.5t-493.5 -131q-244 0 -423 90t-288 237.5t-158 320.5t-49 343zM504 946q0 -536 179.5 -718.5t381.5 -182.5
q204 0 382.5 182t178.5 719q0 374 -96.5 575t-221.5 263.5t-243 62.5q-203 0 -382 -182.5t-179 -718.5z" />
    <glyph glyph-name="afii10081" unicode="&#xef;" horiz-adv-x="2339" 
d="M131 1892h2077v-90h-160q-79 0 -113 -19.5t-34 -78.5v-1516q0 -58 34 -78t113 -20h160v-90h-885v90h119q79 0 113 20t34 78v1516q0 59 -34 78.5t-113 19.5h-545q-79 0 -113 -19.5t-34 -78.5v-1516q0 -58 34 -78t113 -20h119v-90h-885v90h160q79 0 113 20t34 78v1516
q0 59 -34 78.5t-113 19.5h-160v90z" />
    <glyph glyph-name="afii10081" unicode="&#x43f;" horiz-adv-x="2339" 
d="M131 1892h2077v-90h-160q-79 0 -113 -19.5t-34 -78.5v-1516q0 -58 34 -78t113 -20h160v-90h-885v90h119q79 0 113 20t34 78v1516q0 59 -34 78.5t-113 19.5h-545q-79 0 -113 -19.5t-34 -78.5v-1516q0 -58 34 -78t113 -20h119v-90h-885v90h160q79 0 113 20t34 78v1516
q0 59 -34 78.5t-113 19.5h-160v90z" />
    <glyph glyph-name="afii10082" unicode="&#xf0;" horiz-adv-x="2204" 
d="M1016 -877h-926v91h160q79 0 113 20t34 78v2330q0 53 -57.5 70t-200.5 17h-49v90q242 11 619 155v-229q246 192 508 192q225 0 417 -114.5t307 -340t115 -532.5q0 -256 -102 -485.5t-299 -369.5t-463 -140q-306 0 -483 119v-762q0 -58 34 -78t113 -20h160v-91zM709 1638
v-1306q0 -62 50.5 -130t151 -112.5t236.5 -44.5q143 0 270.5 103t205 305.5t77.5 488.5q0 246 -62.5 439.5t-195.5 305t-336 111.5q-253 0 -397 -160z" />
    <glyph glyph-name="afii10082" unicode="&#x440;" horiz-adv-x="2204" 
d="M1016 -877h-926v91h160q79 0 113 20t34 78v2330q0 53 -57.5 70t-200.5 17h-49v90q242 11 619 155v-229q246 192 508 192q225 0 417 -114.5t307 -340t115 -532.5q0 -256 -102 -485.5t-299 -369.5t-463 -140q-306 0 -483 119v-762q0 -58 34 -78t113 -20h160v-91zM709 1638
v-1306q0 -62 50.5 -130t151 -112.5t236.5 -44.5q143 0 270.5 103t205 305.5t77.5 488.5q0 246 -62.5 439.5t-195.5 305t-336 111.5q-253 0 -397 -160z" />
    <glyph glyph-name="afii10083" unicode="&#xf1;" horiz-adv-x="1884" 
d="M1679 557l82 -20q-64 -212 -244 -397t-522 -185q-227 0 -420.5 108t-310.5 328t-117 531q0 290 117.5 522t332.5 362.5t497 130.5q264 0 416.5 -101t152.5 -251q0 -102 -61 -157.5t-136 -55.5q-72 0 -130 50t-58 130q0 38 10 77t10 75q0 52 -56.5 97.5t-168.5 45.5
q-207 0 -335 -147t-181 -359.5t-53 -418.5q0 -358 159 -595t443 -237q220 0 369.5 138t203.5 329z" />
    <glyph glyph-name="afii10083" unicode="&#x441;" horiz-adv-x="1884" 
d="M1679 557l82 -20q-64 -212 -244 -397t-522 -185q-227 0 -420.5 108t-310.5 328t-117 531q0 290 117.5 522t332.5 362.5t497 130.5q264 0 416.5 -101t152.5 -251q0 -102 -61 -157.5t-136 -55.5q-72 0 -130 50t-58 130q0 38 10 77t10 75q0 52 -56.5 97.5t-168.5 45.5
q-207 0 -335 -147t-181 -359.5t-53 -418.5q0 -358 159 -595t443 -237q220 0 369.5 138t203.5 329z" />
    <glyph glyph-name="afii10084" unicode="&#xf2;" horiz-adv-x="1909" 
d="M115 1892h1679v-499h-102v98q0 83 -74 155t-184.5 114t-208.5 42q-115 0 -115 -94v-1520q0 -58 34 -78t113 -20h160v-90h-925v90h159q80 0 114 20t34 78v1520q0 94 -115 94q-99 0 -209.5 -42t-184 -114t-73.5 -155v-98h-102v499z" />
    <glyph glyph-name="afii10084" unicode="&#x442;" horiz-adv-x="1909" 
d="M115 1892h1679v-499h-102v98q0 83 -74 155t-184.5 114t-208.5 42q-115 0 -115 -94v-1520q0 -58 34 -78t113 -20h160v-90h-925v90h159q80 0 114 20t34 78v1520q0 94 -115 94q-99 0 -209.5 -42t-184 -114t-73.5 -155v-98h-102v499z" />
    <glyph glyph-name="afii10085" unicode="&#xf3;" horiz-adv-x="2163" 
d="M2105 1892v-90h-61q-80 0 -136.5 -74.5t-129 -259.5t-164.5 -424l-545 -1376q-96 -240 -239.5 -413t-387.5 -173q-135 0 -233 77t-98 194q0 82 49 137t127 55q175 0 192 -188q11 -127 99 -127q87 0 195 116.5t198 354.5l102 266l-713 1688q-55 147 -221 147h-82v90h844
v-90h-139q-107 0 -107 -78q0 -32 17 -69l553 -1315l172 475q241 668 241 860q0 127 -127 127h-110v90h704z" />
    <glyph glyph-name="afii10085" unicode="&#x443;" horiz-adv-x="2163" 
d="M2105 1892v-90h-61q-80 0 -136.5 -74.5t-129 -259.5t-164.5 -424l-545 -1376q-96 -240 -239.5 -413t-387.5 -173q-135 0 -233 77t-98 194q0 82 49 137t127 55q175 0 192 -188q11 -127 99 -127q87 0 195 116.5t198 354.5l102 266l-713 1688q-55 147 -221 147h-82v90h844
v-90h-139q-107 0 -107 -78q0 -32 17 -69l553 -1315l172 475q241 668 241 860q0 127 -127 127h-110v90h704z" />
    <glyph glyph-name="afii10086" unicode="&#xf4;" horiz-adv-x="2998" 
d="M1343 1827v790q0 53 -57.5 69.5t-200.5 16.5h-49v90q247 14 619 156v-1122q146 110 368 110q183 0 336 -66t263 -190.5t169.5 -302.5t59.5 -395q0 -342 -122.5 -574.5t-311.5 -343t-389 -110.5q-219 0 -373 111v-754q0 -58 34 -78t113 -20h160v-91h-926v91h160
q79 0 113 20t34 78v754q-216 -111 -450 -111q-228 0 -398 124t-259 339t-89 483q0 267 89.5 504.5t277 384.5t461.5 147q222 0 368 -110zM1343 193v1363q-28 112 -113 201.5t-243 89.5q-249 0 -366 -267.5t-117 -641.5q0 -433 141 -650.5t391 -217.5q171 0 307 123z
M1655 1556v-1363q148 -148 344 -148q297 0 396 300t99 634q0 376 -93 569t-200.5 246t-189.5 53q-157 0 -242.5 -90t-113.5 -201z" />
    <glyph glyph-name="afii10086" unicode="&#x444;" horiz-adv-x="2998" 
d="M1343 1827v790q0 53 -57.5 69.5t-200.5 16.5h-49v90q247 14 619 156v-1122q146 110 368 110q183 0 336 -66t263 -190.5t169.5 -302.5t59.5 -395q0 -342 -122.5 -574.5t-311.5 -343t-389 -110.5q-219 0 -373 111v-754q0 -58 34 -78t113 -20h160v-91h-926v91h160
q79 0 113 20t34 78v754q-216 -111 -450 -111q-228 0 -398 124t-259 339t-89 483q0 267 89.5 504.5t277 384.5t461.5 147q222 0 368 -110zM1343 193v1363q-28 112 -113 201.5t-243 89.5q-249 0 -366 -267.5t-117 -641.5q0 -433 141 -650.5t391 -217.5q171 0 307 123z
M1655 1556v-1363q148 -148 344 -148q297 0 396 300t99 634q0 376 -93 569t-200.5 246t-189.5 53q-157 0 -242.5 -90t-113.5 -201z" />
    <glyph glyph-name="afii10087" unicode="&#xf5;" horiz-adv-x="2114" 
d="M934 913l-475 689q-57 80 -139 138.5t-230 61.5v90h877v-90h-140q-90 0 -90 -45q0 -33 29 -82l356 -532l242 336q115 154 115 250q0 73 -82 73h-152v90h737v-90h-73q-104 0 -194 -80.5t-228 -259.5l-307 -397l557 -811q112 -164 319 -164v-90h-934v90h172q111 0 111 70
q0 36 -29 94l-381 577l-270 -360q-135 -180 -135 -278q0 -67 48.5 -85t135.5 -18h90v-90h-774v90h49q153 0 512 463z" />
    <glyph glyph-name="afii10087" unicode="&#x445;" horiz-adv-x="2114" 
d="M934 913l-475 689q-57 80 -139 138.5t-230 61.5v90h877v-90h-140q-90 0 -90 -45q0 -33 29 -82l356 -532l242 336q115 154 115 250q0 73 -82 73h-152v90h737v-90h-73q-104 0 -194 -80.5t-228 -259.5l-307 -397l557 -811q112 -164 319 -164v-90h-934v90h172q111 0 111 70
q0 36 -29 94l-381 577l-270 -360q-135 -180 -135 -278q0 -67 48.5 -85t135.5 -18h90v-90h-774v90h49q153 0 512 463z" />
    <glyph glyph-name="afii10088" unicode="&#xf6;" horiz-adv-x="2339" 
d="M2208 90v-590h-103v127q0 101 -114.5 187t-289.5 136t-333 50h-1237v90h160q79 0 113 20t34 78v1516q0 59 -34 78.5t-113 19.5h-160v90h889v-90h-123q-79 0 -113 -19.5t-34 -78.5v-1516q0 -58 34 -78t113 -20h545q79 0 113 20t34 78v1516q0 59 -34 78.5t-113 19.5h-123
v90h889v-90h-160q-79 0 -113 -19.5t-34 -78.5v-1516q0 -58 34 -78t113 -20h160z" />
    <glyph glyph-name="afii10088" unicode="&#x446;" horiz-adv-x="2339" 
d="M2208 90v-590h-103v127q0 101 -114.5 187t-289.5 136t-333 50h-1237v90h160q79 0 113 20t34 78v1516q0 59 -34 78.5t-113 19.5h-160v90h889v-90h-123q-79 0 -113 -19.5t-34 -78.5v-1516q0 -58 34 -78t113 -20h545q79 0 113 20t34 78v1516q0 59 -34 78.5t-113 19.5h-123
v90h889v-90h-160q-79 0 -113 -19.5t-34 -78.5v-1516q0 -58 34 -78t113 -20h160z" />
    <glyph glyph-name="afii10089" unicode="&#xf7;" horiz-adv-x="2142" 
d="M1393 188v676q-253 -98 -549 -98q-529 0 -529 438v500q0 59 -34 78.5t-113 19.5h-123v90h815v-90h-86q-79 0 -113 -19.5t-34 -78.5v-578q0 -237 348 -237q209 0 418 82v733q0 59 -34.5 78.5t-113.5 19.5h-86v90h852v-90h-160q-79 0 -113 -19.5t-34 -78.5v-1516
q0 -58 34 -78t113 -20h160v-90h-967v90h201q79 0 113.5 20t34.5 78z" />
    <glyph glyph-name="afii10089" unicode="&#x447;" horiz-adv-x="2142" 
d="M1393 188v676q-253 -98 -549 -98q-529 0 -529 438v500q0 59 -34 78.5t-113 19.5h-123v90h815v-90h-86q-79 0 -113 -19.5t-34 -78.5v-578q0 -237 348 -237q209 0 418 82v733q0 59 -34.5 78.5t-113.5 19.5h-86v90h852v-90h-160q-79 0 -113 -19.5t-34 -78.5v-1516
q0 -58 34 -78t113 -20h160v-90h-967v90h201q79 0 113.5 20t34.5 78z" />
    <glyph glyph-name="afii10090" unicode="&#xf8;" horiz-adv-x="3301" 
d="M131 1892h881v-90h-115q-79 0 -113 -19.5t-34 -78.5v-1516q0 -58 34 -78t113 -20h451q79 0 113 20t34 78v1516q0 59 -34 78.5t-113 19.5h-115v90h835v-90h-114q-79 0 -113.5 -19.5t-34.5 -78.5v-1516q0 -58 34.5 -78t113.5 -20h450q80 0 114 20t34 78v1516q0 59 -34 78.5
t-114 19.5h-114v90h880v-90h-159q-79 0 -113.5 -19.5t-34.5 -78.5v-1516q0 -58 34.5 -78t113.5 -20h159v-90h-3039v90h160q79 0 113 20t34 78v1516q0 59 -34 78.5t-113 19.5h-160v90z" />
    <glyph glyph-name="afii10090" unicode="&#x448;" horiz-adv-x="3301" 
d="M131 1892h881v-90h-115q-79 0 -113 -19.5t-34 -78.5v-1516q0 -58 34 -78t113 -20h451q79 0 113 20t34 78v1516q0 59 -34 78.5t-113 19.5h-115v90h835v-90h-114q-79 0 -113.5 -19.5t-34.5 -78.5v-1516q0 -58 34.5 -78t113.5 -20h450q80 0 114 20t34 78v1516q0 59 -34 78.5
t-114 19.5h-114v90h880v-90h-159q-79 0 -113.5 -19.5t-34.5 -78.5v-1516q0 -58 34.5 -78t113.5 -20h159v-90h-3039v90h160q79 0 113 20t34 78v1516q0 59 -34 78.5t-113 19.5h-160v90z" />
    <glyph glyph-name="afii10091" unicode="&#xf9;" horiz-adv-x="3301" 
d="M1806 1704v-1516q0 -58 34.5 -78t113.5 -20h450q80 0 114 20t34 78v1516q0 59 -34 78.5t-114 19.5h-114v90h880v-90h-159q-79 0 -113.5 -19.5t-34.5 -78.5v-1516q0 -58 34.5 -78t113.5 -20h159v-590h-102v127q0 101 -114.5 187t-289.5 136t-333 50h-2200v90h160
q79 0 113 20t34 78v1516q0 59 -34 78.5t-113 19.5h-160v90h881v-90h-115q-79 0 -113 -19.5t-34 -78.5v-1516q0 -58 34 -78t113 -20h451q79 0 113 20t34 78v1516q0 59 -34 78.5t-113 19.5h-115v90h835v-90h-114q-79 0 -113.5 -19.5t-34.5 -78.5z" />
    <glyph glyph-name="afii10091" unicode="&#x449;" horiz-adv-x="3301" 
d="M1806 1704v-1516q0 -58 34.5 -78t113.5 -20h450q80 0 114 20t34 78v1516q0 59 -34 78.5t-114 19.5h-114v90h880v-90h-159q-79 0 -113.5 -19.5t-34.5 -78.5v-1516q0 -58 34.5 -78t113.5 -20h159v-590h-102v127q0 101 -114.5 187t-289.5 136t-333 50h-2200v90h160
q79 0 113 20t34 78v1516q0 59 -34 78.5t-113 19.5h-160v90h881v-90h-115q-79 0 -113 -19.5t-34 -78.5v-1516q0 -58 34 -78t113 -20h451q79 0 113 20t34 78v1516q0 59 -34 78.5t-113 19.5h-115v90h835v-90h-114q-79 0 -113.5 -19.5t-34.5 -78.5z" />
    <glyph glyph-name="afii10092" unicode="&#xfa;" horiz-adv-x="2265" 
d="M1040 1704v-586q157 33 344 33q410 0 580 -173t170 -409q0 -142 -71.5 -272t-233 -213.5t-412.5 -83.5h-995v90h160q79 0 113 20t34 78v1541q0 34 -23.5 53.5t-58.5 19.5h-57q-151 0 -274 -103t-123 -216v-82h-103v491h1258v-90h-160q-79 0 -113.5 -20t-34.5 -78z
M1040 1028v-876q131 -62 246 -62q150 0 260.5 57t171 168t60.5 267q0 264 -147 369.5t-353 105.5q-88 0 -238 -29z" />
    <glyph glyph-name="afii10092" unicode="&#x44a;" horiz-adv-x="2265" 
d="M1040 1704v-586q157 33 344 33q410 0 580 -173t170 -409q0 -142 -71.5 -272t-233 -213.5t-412.5 -83.5h-995v90h160q79 0 113 20t34 78v1541q0 34 -23.5 53.5t-58.5 19.5h-57q-151 0 -274 -103t-123 -216v-82h-103v491h1258v-90h-160q-79 0 -113.5 -20t-34.5 -78z
M1040 1028v-876q131 -62 246 -62q150 0 260.5 57t171 168t60.5 267q0 264 -147 369.5t-353 105.5q-88 0 -238 -29z" />
    <glyph glyph-name="afii10093" unicode="&#xfb;" horiz-adv-x="2925" 
d="M750 1704v-586q156 33 344 33q282 0 449 -87.5t233.5 -218t66.5 -276.5q0 -142 -71.5 -272t-233 -213.5t-412.5 -83.5h-995v90h160q79 0 113 20t34 78v1516q0 59 -34 78.5t-113 19.5h-160v90h926v-90h-160q-79 0 -113 -19.5t-34 -78.5zM750 1028v-876q129 -62 245 -62
q226 0 359 129t133 363q0 250 -136.5 364.5t-363.5 114.5q-103 0 -237 -33zM2175 188v1516q0 59 -34 78.5t-113 19.5h-160v90h925v-90h-159q-79 0 -113.5 -19.5t-34.5 -78.5v-1516q0 -58 34.5 -78t113.5 -20h159v-90h-925v90h160q79 0 113 20t34 78z" />
    <glyph glyph-name="afii10093" unicode="&#x44b;" horiz-adv-x="2925" 
d="M750 1704v-586q156 33 344 33q282 0 449 -87.5t233.5 -218t66.5 -276.5q0 -142 -71.5 -272t-233 -213.5t-412.5 -83.5h-995v90h160q79 0 113 20t34 78v1516q0 59 -34 78.5t-113 19.5h-160v90h926v-90h-160q-79 0 -113 -19.5t-34 -78.5zM750 1028v-876q129 -62 245 -62
q226 0 359 129t133 363q0 250 -136.5 364.5t-363.5 114.5q-103 0 -237 -33zM2175 188v1516q0 59 -34 78.5t-113 19.5h-160v90h925v-90h-159q-79 0 -113.5 -19.5t-34.5 -78.5v-1516q0 -58 34.5 -78t113.5 -20h159v-90h-925v90h160q79 0 113 20t34 78z" />
    <glyph glyph-name="afii10094" unicode="&#xfc;" horiz-adv-x="1974" 
d="M750 1704v-586q156 33 344 33q282 0 449 -87.5t233.5 -218t66.5 -276.5q0 -142 -71.5 -272t-233 -213.5t-412.5 -83.5h-995v90h160q79 0 113 20t34 78v1516q0 59 -34 78.5t-113 19.5h-160v90h926v-90h-160q-79 0 -113 -19.5t-34 -78.5zM750 1028v-876q129 -62 245 -62
q226 0 359 129t133 363q0 250 -136.5 364.5t-363.5 114.5q-103 0 -237 -33z" />
    <glyph glyph-name="afii10094" unicode="&#x44c;" horiz-adv-x="1974" 
d="M750 1704v-586q156 33 344 33q282 0 449 -87.5t233.5 -218t66.5 -276.5q0 -142 -71.5 -272t-233 -213.5t-412.5 -83.5h-995v90h160q79 0 113 20t34 78v1516q0 59 -34 78.5t-113 19.5h-160v90h926v-90h-160q-79 0 -113 -19.5t-34 -78.5zM750 1028v-876q129 -62 245 -62
q226 0 359 129t133 363q0 250 -136.5 364.5t-363.5 114.5q-103 0 -237 -33z" />
    <glyph glyph-name="afii10095" unicode="&#xfd;" horiz-adv-x="1876" 
d="M221 1892h103l-5 -73q236 118 553 118q464 0 660.5 -281t196.5 -669q0 -321 -129.5 -555.5t-350.5 -355.5t-487 -121q-245 0 -442 105.5t-197 291.5q0 94 48.5 147.5t135.5 53.5q96 0 136 -61t40 -140q0 -30 -8 -88t-8 -76q0 -53 77.5 -98t217.5 -45q244 0 380 167
t183 380.5t47 398.5h-164q-430 0 -733 -69v213q111 -20 352.5 -37t380.5 -17h164q-5 442 -152.5 604t-379.5 162q-212 0 -371 -134t-166 -255l-4 -61h-102z" />
    <glyph glyph-name="afii10095" unicode="&#x44d;" horiz-adv-x="1876" 
d="M221 1892h103l-5 -73q236 118 553 118q464 0 660.5 -281t196.5 -669q0 -321 -129.5 -555.5t-350.5 -355.5t-487 -121q-245 0 -442 105.5t-197 291.5q0 94 48.5 147.5t135.5 53.5q96 0 136 -61t40 -140q0 -30 -8 -88t-8 -76q0 -53 77.5 -98t217.5 -45q244 0 380 167
t183 380.5t47 398.5h-164q-430 0 -733 -69v213q111 -20 352.5 -37t380.5 -17h164q-5 442 -152.5 604t-379.5 162q-212 0 -371 -134t-166 -255l-4 -61h-102z" />
    <glyph glyph-name="afii10096" unicode="&#xfe;" horiz-adv-x="3088" 
d="M750 1102h364q17 171 84.5 321t183 265.5t278 182t363.5 66.5q247 0 425 -89.5t286 -237t157.5 -319t49.5 -345.5t-49.5 -346t-157.5 -318.5t-286 -236.5t-425 -90q-335 0 -541 160t-291 400.5t-85 496.5h-356v-824q0 -58 34 -78t113 -20h160v-90h-926v90h160
q79 0 113 20t34 78v1516q0 59 -34 78.5t-113 19.5h-160v90h926v-90h-160q-79 0 -113 -19.5t-34 -78.5v-602zM1462 946q0 -537 178.5 -719t382.5 -182q142 0 269 78.5t210 279t83 543.5q0 497 -165 699t-397 202q-205 0 -383 -182t-178 -719z" />
    <glyph glyph-name="afii10096" unicode="&#x44e;" horiz-adv-x="3088" 
d="M750 1102h364q17 171 84.5 321t183 265.5t278 182t363.5 66.5q247 0 425 -89.5t286 -237t157.5 -319t49.5 -345.5t-49.5 -346t-157.5 -318.5t-286 -236.5t-425 -90q-335 0 -541 160t-291 400.5t-85 496.5h-356v-824q0 -58 34 -78t113 -20h160v-90h-926v90h160
q79 0 113 20t34 78v1516q0 59 -34 78.5t-113 19.5h-160v90h926v-90h-160q-79 0 -113 -19.5t-34 -78.5v-602zM1462 946q0 -537 178.5 -719t382.5 -182q142 0 269 78.5t210 279t83 543.5q0 497 -165 699t-397 202q-205 0 -383 -182t-178 -719z" />
    <glyph glyph-name="afii10097" unicode="&#xff;" horiz-adv-x="2187" 
d="M2056 0h-926v90h160q80 0 114 20t34 78v713q-167 0 -283 -66.5t-184 -154.5t-152 -229q-136 -238 -251 -367t-269 -129q-250 0 -250 283h86v-37q0 -95 66 -95q39 0 58 25t56 98q46 101 128 229.5t248 264.5t386 166v20h-135q-243 0 -439 115.5t-196 355.5
q0 223 135 336.5t315.5 144.5t389.5 31h909v-90h-160q-79 0 -113 -19.5t-34 -78.5v-1516q0 -58 34 -78t113 -20h160v-90zM1438 991v754q-148 57 -324 57q-207 0 -343 -112t-136 -326q0 -231 168.5 -310t363.5 -79q156 0 271 16z" />
    <glyph glyph-name="afii10097" unicode="&#x44f;" horiz-adv-x="2187" 
d="M2056 0h-926v90h160q80 0 114 20t34 78v713q-167 0 -283 -66.5t-184 -154.5t-152 -229q-136 -238 -251 -367t-269 -129q-250 0 -250 283h86v-37q0 -95 66 -95q39 0 58 25t56 98q46 101 128 229.5t248 264.5t386 166v20h-135q-243 0 -439 115.5t-196 355.5
q0 223 135 336.5t315.5 144.5t389.5 31h909v-90h-160q-79 0 -113 -19.5t-34 -78.5v-1516q0 -58 34 -78t113 -20h160v-90zM1438 991v754q-148 57 -324 57q-207 0 -343 -112t-136 -326q0 -231 168.5 -310t363.5 -79q156 0 271 16z" />
    <glyph glyph-name="nonbreakingspace" unicode="&#xa0;" horiz-adv-x="1278" 
 />
  </font>
</defs>
</svg>
